<svg width="17" height="14" viewBox="0 0 17 14" fill="none" xmlns="http://www.w3.org/2000/svg">
<g clip-path="url(#clip0_3458_414)">
<path d="M0.042407 4.10071H12.808C12.7062 4.20566 12.6359 4.28321 12.5602 4.35551C11.2879 5.57995 10.0119 6.79506 8.75537 8.02882C8.53747 8.25532 8.36603 8.51943 8.25008 8.80722C8.00289 9.39028 7.80416 9.99026 7.58363 10.5832C7.35824 11.1937 7.48729 11.743 7.94715 12.1931C8.407 12.6432 8.96682 12.7692 9.58904 12.568C10.2555 12.3517 10.9219 12.1237 11.5817 11.8899C11.7024 11.8405 11.8126 11.7704 11.9071 11.6829C12.3736 11.2841 12.8353 10.8783 13.3254 10.4515C13.3373 10.5303 13.345 10.6097 13.3484 10.6894C13.3351 11.3307 13.3763 11.9768 13.2879 12.6076C13.1764 13.4111 12.4318 13.993 11.5914 13.9953C8.31976 14.0039 5.04807 14.0039 1.7764 13.9953C0.830033 13.9924 0.0296858 13.2315 0.0254447 12.3225C0.0127215 9.61127 0.0212007 6.90001 0.0224124 4.18817C0.0266288 4.15855 0.033316 4.1293 0.042407 4.10071ZM5.84055 6.41665C6.72754 6.41665 7.61452 6.41665 8.50151 6.41665C8.92562 6.41665 9.21946 6.17001 9.21522 5.82892C9.21098 5.48782 8.92077 5.25051 8.49182 5.25051C6.71784 5.25051 4.94366 5.25051 3.16928 5.25051C2.727 5.25051 2.45194 5.47208 2.44224 5.82367C2.43255 6.17526 2.72821 6.41665 3.18201 6.41665C4.06899 6.41665 4.95518 6.41665 5.84055 6.41665ZM4.60458 8.74891C5.09775 8.74891 5.59154 8.74891 6.08471 8.74891C6.50518 8.746 6.80085 8.49528 6.79176 8.15477C6.78267 7.81426 6.50094 7.58278 6.09501 7.58278C5.10785 7.57967 4.1209 7.57967 3.13414 7.58278C2.72094 7.58278 2.45073 7.81601 2.4477 8.16118C2.44467 8.50636 2.72155 8.74425 3.12627 8.74833C3.62005 8.75299 4.11322 8.74891 4.60701 8.74891H4.60458ZM4.01568 11.0812C4.3277 11.0812 4.63972 11.0876 4.95174 11.0812C5.30678 11.0713 5.57821 10.8141 5.57942 10.5016C5.57608 10.3448 5.5086 10.1957 5.39164 10.0865C5.27469 9.97733 5.1177 9.91697 4.95477 9.91854C4.33134 9.9098 3.70729 9.91096 3.08386 9.91854C2.70216 9.92321 2.4374 10.1792 2.44527 10.5121C2.45315 10.8328 2.71428 11.073 3.08022 11.0818C3.39406 11.0882 3.70608 11.0812 4.0181 11.0812H4.01568Z" fill="#D1BBE4"/>
<path d="M0 2.89854C0.0254464 2.37378 8.88366e-07 1.8636 0.0842163 1.37032C0.213266 0.593097 0.949999 0.00886483 1.77277 0.00711563C5.05252 -0.001436 8.33187 -0.001436 11.6108 0.00711563C12.5196 0.010031 13.2818 0.725453 13.3448 1.60355C13.3751 2.02686 13.3497 2.45424 13.3497 2.89796L0 2.89854Z" fill="#D1BBE4"/>
<path d="M17 5.03535C16.8903 5.22077 16.8255 5.41318 16.6971 5.54087C14.9352 7.24925 13.1675 8.9518 11.3939 10.6485C11.3222 10.7152 11.2365 10.7663 11.1425 10.7984C10.5191 11.0159 9.89622 11.2363 9.26431 11.4298C9.13526 11.4689 8.9129 11.4479 8.83656 11.3663C8.7475 11.2712 8.71539 11.0608 8.7572 10.9307C8.95168 10.3313 9.17585 9.74011 9.40244 9.15063C9.45546 9.02633 9.53468 8.91396 9.6351 8.82062C11.3505 7.16354 13.0683 5.509 14.7886 3.85697C15.2309 3.4325 15.5605 3.43425 16.0052 3.85697C16.2409 4.0832 16.4899 4.29952 16.7062 4.54091C16.8225 4.67502 16.8903 4.84877 17 5.03535Z" fill="#9D30FD"/>
</g>
<defs>
<clipPath id="clip0_3458_414">
<rect width="17" height="14" fill="white"/>
</clipPath>
</defs>
</svg>
