<svg width="17" height="17" viewBox="0 0 17 17" fill="none" xmlns="http://www.w3.org/2000/svg">
<g clip-path="url(#clip0_3467_537)">
<path d="M8.50001 17C6.12145 17 3.74245 17 1.36301 17C0.509225 17 0.000671387 16.4929 0.000671387 15.6407C0.000671387 12.7862 0.000671387 9.93221 0.000671387 7.07863C0.000671387 6.16269 0.495947 5.66158 1.4128 5.66091C6.01589 5.66091 10.619 5.66091 15.2221 5.66091C15.4759 5.65306 15.73 5.66661 15.9816 5.7014C16.2688 5.746 16.53 5.89319 16.7169 6.11568C16.9038 6.33818 17.0037 6.62088 16.998 6.91137C17.002 9.85433 17.002 12.7968 16.998 15.7389C16.998 16.469 16.4523 17 15.7041 17C13.3043 17.0018 10.9029 17.0018 8.50001 17ZM8.46616 14.8761C10.1481 14.8761 11.83 14.8761 13.5119 14.8761C14.367 14.8761 14.8749 14.369 14.8755 13.5168C14.8755 12.0672 14.8755 10.6176 14.8755 9.16804C14.8755 8.29723 14.3709 7.78683 13.4959 7.7855C10.1658 7.7824 6.8356 7.7824 3.50544 7.7855C2.62975 7.7855 2.12517 8.29723 2.12384 9.16671C2.12384 10.6048 2.12384 12.0429 2.12384 13.4809C2.12384 14.3783 2.62177 14.8747 3.51805 14.8747L8.46616 14.8761Z" fill="#D1BBE4"/>
<path d="M11.313 4.24916C9.87494 4.24916 8.43648 4.24916 6.99757 4.24916C6.2042 4.24916 5.67906 3.74938 5.65981 2.96087C5.64586 2.40799 5.64719 1.85444 5.65981 1.30156C5.67707 0.505089 6.19757 0.00198364 6.98762 0.00198364C9.88624 0.00198364 12.7853 0.00198364 15.6848 0.00198364C16.4755 0.00198364 16.996 0.521017 17 1.3062C17 1.83718 17 2.36816 17 2.89914C17 3.73544 16.4921 4.24784 15.6629 4.2485C14.2129 4.25027 12.7629 4.25049 11.313 4.24916Z" fill="#9D30FD"/>
<path d="M4.24902 2.1279C4.24902 2.54774 4.12453 2.95817 3.89133 3.30733C3.65812 3.65649 3.32663 3.92872 2.93874 4.08963C2.55085 4.25054 2.12394 4.29291 1.71197 4.21139C1.30001 4.12986 0.921472 3.92811 0.624145 3.6316C0.326818 3.3351 0.124049 2.95715 0.041476 2.5455C-0.0410972 2.13385 0.000203859 1.70697 0.160188 1.31878C0.320173 0.930592 0.591671 0.598515 0.940344 0.364498C1.28902 0.130481 1.69924 0.00502354 2.1192 0.00397392C2.39864 0.00327551 2.67548 0.0576981 2.93385 0.164122C3.19222 0.270547 3.42705 0.426883 3.62489 0.624177C3.82273 0.821471 3.97967 1.05584 4.08677 1.31388C4.19387 1.57191 4.24902 1.84853 4.24902 2.1279Z" fill="#9D30FD"/>
</g>
<defs>
<clipPath id="clip0_3467_537">
<rect width="17" height="17" fill="white"/>
</clipPath>
</defs>
</svg>
