<svg width="15" height="17" viewBox="0 0 15 17" fill="none" xmlns="http://www.w3.org/2000/svg">
<g clip-path="url(#clip0_3458_400)">
<path d="M8.34602 0.947246C8.09732 1.36459 7.78864 1.74319 7.42987 2.07093C7.1263 2.35103 6.79663 2.59839 6.42613 2.77935C6.26403 2.85856 6.07486 2.88749 5.89495 2.9252C3.89817 3.34238 2.36705 4.97668 2.07986 7.00255C1.721 9.53476 3.44721 11.9356 5.9766 12.417C7.94348 12.7922 9.88996 11.984 10.996 10.3179C11.6629 9.31277 11.9007 8.2026 11.7531 7.00753C11.7467 6.96331 11.7567 6.91828 11.7811 6.88088C12.2504 6.31667 12.8197 5.88099 13.5114 5.55157C14.212 8.02995 13.752 10.2451 12.1037 12.2249L14.9993 15.7134L13.4283 16.9998L10.5398 13.5213C8.87245 14.4979 7.10043 14.7782 5.22825 14.3222C3.79967 13.9745 2.60558 13.2251 1.64718 12.1108C-0.326583 9.8158 -0.516459 6.54126 1.02415 4.06668C2.61009 1.51929 5.57406 0.359788 8.34602 0.947246Z" fill="#D1BBE4"/>
<path d="M9.85553 8.2894C9.65047 8.28608 9.51755 8.17936 9.43781 7.99603C9.31035 7.70313 9.18171 7.41071 9.05473 7.11733C8.623 6.11958 7.88675 5.43986 6.88539 5.03218C6.57471 4.90577 6.26829 4.76845 5.96473 4.62639C5.69036 4.49832 5.60088 4.1772 5.77628 3.94193C5.83824 3.86613 5.91741 3.80621 6.00721 3.76714C6.38697 3.59164 6.77479 3.43511 7.15217 3.25462C8.06452 2.82085 8.69491 2.12263 9.0666 1.18607C9.18527 0.889138 9.31201 0.596239 9.43448 0.301206C9.51352 0.111474 9.65403 -0.000942704 9.8617 5.95658e-06C10.0627 5.95658e-06 10.2011 0.108153 10.2799 0.294328C10.456 0.711976 10.6165 1.13745 10.8158 1.54395C11.192 2.31071 11.7771 2.87824 12.5504 3.24395C12.9175 3.41779 13.2916 3.57741 13.6659 3.73844C13.8206 3.80508 13.9535 3.89023 14.0069 4.05932C14.0827 4.30028 13.9782 4.52559 13.7387 4.63374C13.3538 4.80711 12.9657 4.97289 12.5817 5.14839C11.7113 5.54635 11.0833 6.18646 10.6919 7.0578C10.5512 7.37063 10.4195 7.68724 10.2809 8.00101C10.1978 8.18315 10.0608 8.28751 9.85553 8.2894Z" fill="#9D30FD"/>
</g>
<defs>
<clipPath id="clip0_3458_400">
<rect width="15" height="17" fill="white"/>
</clipPath>
</defs>
</svg>
