<svg width="23" height="21" viewBox="0 0 23 21" fill="none" xmlns="http://www.w3.org/2000/svg">
<path d="M21.1911 0.00178908C21.4497 0.00178908 21.7083 -0.00293531 21.9669 0.00297033C22.2357 0.0090447 22.4198 0.177777 22.4206 0.419402C22.4259 1.9331 22.2453 3.42284 21.7556 4.87613C21.3241 6.1585 20.6259 7.31162 19.7551 8.38358C18.9599 9.36223 18.0453 10.2412 17.063 11.0636C16.5004 11.5347 15.9273 11.9949 15.3438 12.4443C15.3054 12.471 15.2742 12.5055 15.2527 12.545C15.2312 12.5845 15.2199 12.628 15.2197 12.6721C15.1696 13.6377 15.1166 14.6032 15.0607 15.5687C15.0295 16.1132 14.9892 16.6574 14.963 17.202C14.9526 17.416 14.8464 17.5554 14.6478 17.6602C13.7274 18.1466 12.8103 18.6388 11.8917 19.1281C11.1166 19.5412 10.3413 19.9541 9.56588 20.3668C9.26719 20.5259 9.08561 20.5055 8.8416 20.2824C8.59759 20.0594 8.35838 19.8329 8.10864 19.6161C7.92669 19.4583 7.88476 19.2869 7.95976 19.0676C8.32771 17.9915 8.68496 16.9123 9.05217 15.836C9.08819 15.7304 9.07563 15.6662 8.98789 15.5866C7.77467 14.4842 6.56477 13.3787 5.35819 12.2702C5.26805 12.1871 5.19601 12.1833 5.08463 12.215C3.91795 12.5465 2.74832 12.87 1.58275 13.2046C1.31546 13.2814 1.11043 13.2404 0.919612 13.0507C0.686498 12.819 0.433801 12.6039 0.191082 12.3803C-0.0366751 12.1703 -0.0556978 12.0348 0.106669 11.7803C1.10057 10.223 2.09429 8.66581 3.08783 7.10863C3.21085 6.91493 3.37506 6.82415 3.62351 6.81352C4.6993 6.76763 5.77417 6.70924 6.8496 6.65694C7.40246 6.63011 7.95569 6.60345 8.50892 6.58354C8.64063 6.57881 8.73261 6.5449 8.82183 6.44855C9.73988 5.45624 10.6806 4.48265 11.7219 3.59545C12.6605 2.79634 13.6583 2.06826 14.7664 1.47077C15.8912 0.863337 17.1038 0.484027 18.3847 0.270074C19.3131 0.115009 20.2496 0.0400914 21.1911 0.00178908ZM19.6448 4.02032C19.6463 3.82626 19.6058 3.63385 19.5256 3.45413C19.4455 3.27441 19.3272 3.11094 19.1777 2.97309C19.0281 2.83524 18.8503 2.72573 18.6543 2.65087C18.4583 2.576 18.248 2.53724 18.0356 2.53683C17.8217 2.53557 17.6097 2.57312 17.4119 2.6473C17.214 2.72147 17.0343 2.8308 16.8831 2.96893C16.7319 3.10706 16.6122 3.27125 16.531 3.45196C16.4498 3.63268 16.4087 3.82633 16.41 4.02167C16.41 4.21574 16.4518 4.40792 16.5332 4.58718C16.6146 4.76645 16.7339 4.92928 16.8843 5.06634C17.0347 5.2034 17.2133 5.312 17.4097 5.38592C17.6062 5.45983 17.8166 5.4976 18.0291 5.49707C18.2415 5.4974 18.4518 5.45943 18.648 5.38532C18.8443 5.31122 19.0226 5.20244 19.1727 5.06523C19.3228 4.92803 19.4418 4.76509 19.5228 4.58578C19.6038 4.40647 19.6453 4.21431 19.6448 4.02032Z" fill="url(#paint0_linear_3286_23)"/>
<path d="M8.22691 16.1198C8.21564 16.2806 8.12716 16.4114 7.95297 16.4944C7.56593 16.679 7.17932 16.8646 6.79313 17.0512L1.6807 19.5051C1.62639 19.5312 1.57209 19.558 1.51445 19.5798C1.35135 19.6424 1.19212 19.6156 1.07335 19.5034C0.949955 19.3869 0.911902 19.2491 0.989484 19.1009C1.08738 18.9135 1.19656 18.7309 1.3024 18.5468C1.9345 17.4475 2.56679 16.3482 3.19926 15.2491C3.57991 14.5879 3.96085 13.9267 4.34211 13.2653C4.40307 13.1592 4.47012 13.0603 4.59758 13.0099C4.79652 12.9312 4.98714 12.9641 5.15468 13.1152C5.43508 13.3683 5.71272 13.623 5.99109 13.8775C6.66998 14.4974 7.34901 15.1173 8.02815 15.7371C8.14212 15.84 8.22783 15.9511 8.22691 16.1198Z" fill="url(#paint1_linear_3286_23)"/>
<defs>
<linearGradient id="paint0_linear_3286_23" x1="15.5" y1="5" x2="-6" y2="3" gradientUnits="userSpaceOnUse">
<stop stop-color="#9D30FD"/>
<stop offset="1" stop-color="#272727"/>
</linearGradient>
<linearGradient id="paint1_linear_3286_23" x1="5.98048" y1="14.5915" x2="-0.998358" y2="13.9422" gradientUnits="userSpaceOnUse">
<stop stop-color="#9D30FD"/>
<stop offset="1" stop-color="#272727"/>
</linearGradient>
</defs>
</svg>
