<svg width="197" height="197" viewBox="0 0 197 197" fill="none" xmlns="http://www.w3.org/2000/svg">
<g clip-path="url(#clip0_3315_122)">
<path d="M67.7384 41.6871C88.366 54.9492 108.707 55.009 129.36 41.9063C129.747 42.8933 130.178 43.9343 130.556 44.9977C135.847 59.9393 136.752 75.2212 134.562 90.8587C132.373 106.496 130.535 122.152 128.533 137.787C127.891 142.876 126.337 144.267 121.133 144.229C106.157 144.118 91.1838 143.996 76.2133 143.865C71.3762 143.823 69.7993 142.427 69.1226 137.626C66.5384 119.333 63.6593 101.071 61.4889 82.7278C59.9132 69.3803 62.0857 56.326 66.7806 43.6994C67.027 43.0471 67.3687 42.4455 67.7384 41.6871ZM112.862 75.8879C109.989 72.9649 106.315 70.9587 102.304 70.1227C98.2927 69.2868 94.1244 69.6588 90.3261 71.1916C86.5278 72.7244 83.27 75.3492 80.9645 78.7343C78.659 82.1193 77.4093 86.1126 77.3734 90.2093C77.3374 94.3061 78.5169 98.3223 80.7628 101.75C83.0086 105.178 86.2199 107.864 89.9907 109.468C93.7615 111.072 97.9225 111.523 101.948 110.763C105.973 110.003 109.682 108.066 112.605 105.198C114.578 103.31 116.153 101.045 117.236 98.5384C118.32 96.0315 118.891 93.3327 118.915 90.601C118.939 87.8694 118.415 85.1602 117.376 82.6333C116.336 80.1064 114.801 77.8129 112.862 75.8879Z" fill="url(#paint0_linear_3315_122)"/>
<path d="M124.427 31.6102C108.651 44.8437 85.4708 42.9219 72.315 30.9156C75.6476 26.2949 78.7986 21.4048 82.4857 16.9594C86.1222 12.6246 90.2381 8.63837 94.1974 4.60872C97.2652 1.48593 100.204 1.59592 103.317 4.6237C111.113 12.1435 118.269 20.2241 123.527 29.8074C123.824 30.3573 124.084 30.9222 124.427 31.6102Z" fill="url(#paint1_linear_3315_122)"/>
<path d="M139.861 134.538L144.913 94.7959C156.589 103.816 164.354 114.699 161.136 131.636C160.512 134.922 158.268 136.498 154.869 136.166C149.943 135.687 145.03 135.104 139.861 134.538Z" fill="url(#paint2_linear_3315_122)"/>
<path d="M52.264 96.5966L57.9486 136.062C52.5828 136.555 47.4922 137.095 42.3839 137.464C39.351 137.682 37.1798 135.952 36.6419 132.913C34.6841 121.854 37.1788 112.022 44.9955 103.774C47.1572 101.489 49.4709 99.343 52.264 96.5966Z" fill="url(#paint3_linear_3315_122)"/>
<path d="M85.6871 154.982L109.968 155.237C110.058 159.643 110.354 164.203 110.153 168.721C110.073 171.078 107.51 172.839 104.873 172.858C100.276 172.898 95.6722 172.884 91.0962 172.737C87.7102 172.612 85.7904 170.559 85.722 167.194C85.6477 163.137 85.6921 159.084 85.6871 154.982Z" fill="url(#paint4_linear_3315_122)"/>
<path d="M105.203 83.5248C106.561 84.9349 107.47 86.7158 107.816 88.6421C108.162 90.5684 107.929 92.5537 107.147 94.3469C106.364 96.14 105.067 97.6605 103.42 98.7159C101.773 99.7714 99.8495 100.314 97.893 100.276C95.9364 100.238 94.0347 99.6209 92.4283 98.5021C90.822 97.3834 89.5832 95.8137 88.8686 93.9914C88.154 92.1692 87.9957 90.1763 88.4138 88.2648C88.8318 86.3533 89.8075 84.6091 91.2173 83.2528C92.1429 82.334 93.2437 81.6105 94.4545 81.1254C95.6653 80.6403 96.9613 80.4034 98.2658 80.4288C99.5702 80.4542 100.856 80.7413 102.048 81.2731C103.24 81.8049 104.313 82.5707 105.203 83.5248Z" fill="url(#paint5_linear_3315_122)"/>
</g>
<defs>
<linearGradient id="paint0_linear_3315_122" x1="58.9951" y1="50.2841" x2="138.52" y2="131.164" gradientUnits="userSpaceOnUse">
<stop stop-color="#9D30FD"/>
<stop offset="1" stop-color="white"/>
</linearGradient>
<linearGradient id="paint1_linear_3315_122" x1="84.3956" y1="14.2436" x2="112.755" y2="43.0862" gradientUnits="userSpaceOnUse">
<stop stop-color="#9D30FD"/>
<stop offset="1" stop-color="white"/>
</linearGradient>
<linearGradient id="paint2_linear_3315_122" x1="133.925" y1="105.6" x2="161.137" y2="133.275" gradientUnits="userSpaceOnUse">
<stop stop-color="#9D30FD"/>
<stop offset="1" stop-color="white"/>
</linearGradient>
<linearGradient id="paint3_linear_3315_122" x1="38.7953" y1="109.79" x2="61.3441" y2="132.723" gradientUnits="userSpaceOnUse">
<stop stop-color="#9D30FD"/>
<stop offset="1" stop-color="white"/>
</linearGradient>
<linearGradient id="paint4_linear_3315_122" x1="88.1225" y1="152.587" x2="107.695" y2="172.493" gradientUnits="userSpaceOnUse">
<stop stop-color="#9D30FD"/>
<stop offset="1" stop-color="white"/>
</linearGradient>
<linearGradient id="paint5_linear_3315_122" x1="91.1411" y1="83.327" x2="105.018" y2="97.4407" gradientUnits="userSpaceOnUse">
<stop stop-color="#9D30FD"/>
<stop offset="1" stop-color="white"/>
</linearGradient>
<clipPath id="clip0_3315_122">
<rect width="138.678" height="138.678" fill="white" transform="translate(0 97.2288) rotate(-44.5162)"/>
</clipPath>
</defs>
</svg>
