<svg width="141" height="128" viewBox="0 0 141 128" fill="none" xmlns="http://www.w3.org/2000/svg">
<g clip-path="url(#clip0_3315_150)">
<path d="M70.5354 70.5159H8.15659C6.97903 70.5159 5.51884 70.9165 4.6867 70.3666C3.11663 69.3533 0.965696 67.8216 0.918594 66.439C0.871492 65.0565 2.74774 63.1399 4.16865 61.9223C4.86733 61.3253 6.4374 61.7102 7.6071 61.7102C49.7268 61.7102 91.8412 61.7102 133.95 61.7102C135.364 61.7102 137.091 61.5296 138.103 62.268C139.391 63.2341 140.969 65.1822 140.757 66.4233C140.506 67.908 138.676 69.3847 137.177 70.3038C136.219 70.8929 134.633 70.508 133.322 70.508L70.5354 70.5159Z" fill="#E8E1EF"/>
<path d="M70.9592 99.3443C49.9046 99.3443 28.8474 99.3443 7.78755 99.3443C6.4844 99.3443 4.75734 99.7213 3.98016 99.0458C2.56709 97.844 0.934196 95.9901 0.910645 94.3877C0.910645 93.1466 3.0302 91.6305 4.50607 90.6957C5.36175 90.1616 6.7984 90.5151 7.97595 90.5151H133.526C138.708 90.5151 140.937 91.8112 140.992 94.804C141.055 97.9461 138.708 99.36 133.338 99.36L70.9592 99.3443Z" fill="#E8E1EF"/>
<path d="M69.9074 127.858H7.88974C6.58659 127.858 4.98509 128.275 4.0352 127.678C2.46513 126.688 0.274919 125.062 0.243518 123.656C0.212117 122.25 2.27676 120.514 3.68197 119.233C4.19224 118.754 5.44038 119.053 6.35887 119.053H133.888C134.932 119.053 136.376 118.731 136.942 119.281C138.307 120.592 140.082 122.313 140.082 123.915C140.121 125.156 137.993 126.774 136.502 127.662C135.521 128.243 133.95 127.858 132.639 127.858H69.9074Z" fill="#E8E1EF"/>
<path d="M115.706 51.9227C113.885 49.9903 112.001 48.8906 111.538 47.351C108.774 38.1919 103.106 32.3633 93.6938 30.0146C92.2964 29.6611 90.5144 27.2732 90.5536 25.8435C90.5929 24.4139 92.3985 22.128 93.8194 21.7588C103.617 19.2452 109.025 12.8904 111.577 3.38559C111.969 1.91668 114.262 -0.0863888 115.557 1.80241e-05C117.127 0.10999 119.482 1.90097 119.922 3.42487C122.614 12.7018 128.188 18.821 137.507 21.7196C138.975 22.1752 140.788 24.3746 140.819 25.7964C140.851 27.2182 139.116 29.5747 137.679 30.0146C128.738 32.8189 123.117 38.6553 119.945 47.3588C119.333 48.8985 117.52 49.9903 115.706 51.9227ZM115.212 17.4464L107.856 25.2073L116.146 33.7066L123.996 25.8121L115.212 17.4464Z" fill="#E8E1EF"/>
<path d="M36.7868 13.2124C26.5813 13.2124 16.3759 13.2124 6.17042 13.2124C2.97533 13.2124 0.298382 12.5762 0.00791949 8.82139C-0.21189 6.02495 2.1668 4.35966 6.13122 4.35181C26.7933 4.35181 47.4659 4.35181 68.1489 4.35181C72.0741 4.35181 74.3271 6.09565 74.0759 8.98635C73.7697 12.5683 71.2576 13.2124 68.196 13.1967C57.7158 13.181 47.2513 13.2124 36.7868 13.2124Z" fill="#E8E1EF"/>
<path d="M37.3913 42.0094H5.98991C3.02249 42.0094 0.730235 40.9725 0.643882 37.6576C0.541827 33.9736 3.04609 33.1802 6.13912 33.188C17.7733 33.188 29.4075 33.188 41.0417 33.188C50.1874 33.188 59.3409 33.188 68.5179 33.188C71.658 33.188 74.5626 33.6437 74.4527 37.6262C74.3507 41.4753 71.5167 42.0408 68.3608 42.033C58.0455 41.9858 47.7223 42.0094 37.3913 42.0094Z" fill="#E8E1EF"/>
</g>
<defs>
<clipPath id="clip0_3315_150">
<rect width="141" height="128" fill="white"/>
</clipPath>
</defs>
</svg>
