<svg width="33" height="30" viewBox="0 0 33 30" fill="none" xmlns="http://www.w3.org/2000/svg">
<path d="M30.9037 0.00260908C31.2808 0.00260908 31.6579 -0.00428065 32.0351 0.00433173C32.427 0.0131902 32.6956 0.259258 32.6967 0.611628C32.7045 2.81911 32.441 4.99164 31.7269 7.11103C31.0976 8.98115 30.0794 10.6628 28.8095 12.226C27.6498 13.6532 26.3161 14.935 24.8836 16.1344C24.063 16.8214 23.2273 17.4926 22.3764 18.1479C22.3204 18.1869 22.2749 18.2371 22.2435 18.2948C22.2122 18.3524 22.1957 18.4158 22.1954 18.4801C22.1223 19.8883 22.045 21.2964 21.9635 22.7044C21.918 23.4984 21.8592 24.292 21.821 25.0863C21.8059 25.3983 21.651 25.6016 21.3614 25.7544C20.0191 26.4638 18.6816 27.1816 17.342 27.8952C16.2117 28.4976 15.0811 29.0997 13.9502 29.7016C13.5146 29.9336 13.2498 29.9038 12.894 29.5785C12.5381 29.2532 12.1893 28.923 11.8251 28.6068C11.5598 28.3767 11.4986 28.1267 11.608 27.8068C12.1446 26.2377 12.6656 24.6638 13.2011 23.0941C13.2536 22.9401 13.2353 22.8466 13.1073 22.7305C11.3381 21.1228 9.57362 19.5107 7.81403 17.894C7.68257 17.7729 7.57752 17.7673 7.41508 17.8135C5.71368 18.297 4.00796 18.7688 2.30817 19.2567C1.91838 19.3687 1.61937 19.3089 1.3411 19.0323C1.00114 18.6944 0.632626 18.3807 0.278661 18.0547C-0.0534845 17.7483 -0.0812259 17.5507 0.155559 17.1796C1.605 14.9086 3.05417 12.6376 4.50308 10.3668C4.68249 10.0843 4.92197 9.95189 5.28428 9.93638C6.85315 9.86945 8.42067 9.78431 9.989 9.70803C10.7953 9.66891 11.6021 9.63003 12.4088 9.60099C12.6009 9.5941 12.7351 9.54464 12.8652 9.40414C14.204 7.95701 15.5759 6.5372 17.0944 5.24337C18.4632 4.07799 19.9184 3.01621 21.5344 2.14488C23.1746 1.25903 24.9431 0.705872 26.811 0.393857C28.1649 0.167721 29.5306 0.0584666 30.9037 0.00260908ZM28.6487 5.86297C28.6509 5.57997 28.5918 5.29936 28.4749 5.03728C28.358 4.77519 28.1855 4.53678 27.9674 4.33575C27.7494 4.13472 27.49 3.97503 27.2041 3.86585C26.9183 3.75667 26.6117 3.70015 26.3018 3.69954C25.99 3.69771 25.6808 3.75247 25.3923 3.86064C25.1038 3.96881 24.8417 4.12825 24.6212 4.32969C24.4006 4.53113 24.2261 4.77057 24.1077 5.03412C23.9892 5.29766 23.9293 5.58006 23.9313 5.86494C23.9312 6.14796 23.9922 6.42821 24.1109 6.68964C24.2296 6.95107 24.4036 7.18853 24.623 7.38841C24.8423 7.5883 25.1027 7.74667 25.3892 7.85446C25.6756 7.96225 25.9826 8.01734 26.2924 8.01656C26.6021 8.01705 26.9089 7.96167 27.1951 7.85359C27.4813 7.74552 27.7413 7.58689 27.9602 7.3868C28.1791 7.18671 28.3526 6.94909 28.4708 6.6876C28.5889 6.4261 28.6494 6.14586 28.6487 5.86297Z" fill="url(#paint0_linear_3341_98)"/>
<path d="M11.9976 23.5086C11.9811 23.7431 11.8521 23.9338 11.5981 24.0549C11.0336 24.3241 10.4698 24.5947 9.90665 24.8669L2.45102 28.4455C2.37182 28.4836 2.29263 28.5227 2.20858 28.5545C1.97072 28.6458 1.73851 28.6066 1.5653 28.443C1.38535 28.2732 1.32986 28.0722 1.443 27.8561C1.58577 27.5827 1.74498 27.3165 1.89933 27.048C2.82115 25.4448 3.74324 23.8418 4.66559 22.2389C5.2207 21.2746 5.77624 20.3103 6.33224 19.3458C6.42114 19.1911 6.51893 19.0469 6.7048 18.9733C6.99492 18.8586 7.27292 18.9066 7.51725 19.1268C7.92617 19.496 8.33104 19.8675 8.737 20.2386C9.72706 21.1426 10.7173 22.0466 11.7077 22.9505C11.8739 23.1006 11.9989 23.2625 11.9976 23.5086Z" fill="url(#paint1_linear_3341_98)"/>
<defs>
<linearGradient id="paint0_linear_3341_98" x1="22.6042" y1="7.29167" x2="-8.75" y2="4.375" gradientUnits="userSpaceOnUse">
<stop stop-color="#9D30FD"/>
<stop offset="1" stop-color="#272727"/>
</linearGradient>
<linearGradient id="paint1_linear_3341_98" x1="8.72153" y1="21.2798" x2="-1.45594" y2="20.333" gradientUnits="userSpaceOnUse">
<stop stop-color="#9D30FD"/>
<stop offset="1" stop-color="#272727"/>
</linearGradient>
</defs>
</svg>
