<svg width="122" height="150" viewBox="0 0 122 150" fill="none" xmlns="http://www.w3.org/2000/svg">
<g clip-path="url(#clip0_3315_158)">
<path d="M90.8517 150.006C81.013 149.772 73.4545 146.762 67.2793 140.638C57.3075 130.684 47.3472 120.777 37.6185 110.606C28.9373 101.56 26.2635 90.7334 29.5855 78.5311C30.037 76.8682 29.6665 75.8669 28.509 74.7193C22.1698 68.4112 15.8866 62.0622 9.65929 55.6721C-0.12733 45.7182 -2.69123 31.6129 2.95156 19.0182C5.65601 12.9774 10.1282 7.92212 15.764 4.53563C21.3997 1.14914 27.9272 -0.405321 34.4643 0.0823258C42.2489 0.58142 49.5738 3.98422 55.0215 9.63225C64.9354 19.6213 74.8841 29.5694 84.6939 39.658C93.6008 48.8098 96.5756 59.6771 93.0915 72.1254C92.6111 73.8469 93.0567 74.813 94.1853 75.9431C100.361 82.1145 106.576 88.2391 112.601 94.5803C121.201 103.603 123.979 114.377 120.599 126.38C117.22 138.384 109.088 145.908 97.1254 149.034C95.0565 149.492 92.9611 149.816 90.8517 150.006ZM85.2031 86.1839C71.1858 97.9295 56.8908 98.6205 41.797 88.1806C41.9186 89.416 41.7508 90.4934 42.1443 91.2721C43.8343 94.6038 45.1132 98.3921 47.5787 101.021C56.9428 110.975 66.6775 120.625 76.3426 130.297C84.0341 137.962 95.6843 137.968 103.052 130.491C110.274 123.154 109.997 111.49 102.432 103.732C96.7375 97.912 91.0137 92.1211 85.2031 86.2073V86.1839ZM37.7112 64.4023C43.3515 58.8299 50.821 55.5516 58.6966 55.192C66.7643 54.7763 73.9929 57.4287 80.689 62.5755C80.689 57.78 79.2537 53.939 76.3542 50.9528C65.9367 40.2318 55.5192 29.4933 44.795 19.1119C37.8501 12.3901 26.4429 13.1103 19.6599 20.0546C12.877 26.9989 12.2983 38.2352 18.7282 45.2673C24.7877 51.8662 31.2871 57.9791 37.7112 64.4258V64.4023ZM75.1387 76.4173C67.1173 65.6027 52.1162 67.9682 47.6946 74.4148C54.7727 83.4085 66.8511 84.3219 75.1387 76.4173Z" fill="#E8E1EF"/>
</g>
<defs>
<clipPath id="clip0_3315_158">
<rect width="122" height="150" fill="white"/>
</clipPath>
</defs>
</svg>
