<svg width="135" height="150" viewBox="0 0 135 150" fill="none" xmlns="http://www.w3.org/2000/svg">
<g clip-path="url(#clip0_3315_161)">
<path d="M84.6808 94.9579C84.4153 101.864 85.7883 104.329 92.5105 106.358C100.437 108.744 108.545 110.513 116.556 112.614C118.743 113.168 120.891 113.865 122.987 114.701C131.904 118.369 136.088 125.184 134.754 134.711C134.5 135.782 134.012 136.783 133.325 137.641C132.639 138.499 131.771 139.193 130.784 139.673C123.874 142.274 116.88 145.064 109.666 146.332C81.6595 151.223 53.023 151.223 25.017 146.332C18.4049 145.194 11.9871 142.756 5.58878 140.545C1.54772 139.14 -0.239672 136.155 0.00641857 131.473C0.453267 123.897 3.51642 118.044 10.5818 115.488C18.2365 112.711 26.2668 111.001 34.1223 108.77C37.7359 107.743 41.4402 106.885 44.879 105.421C50.6038 102.976 52.1323 97.2275 48.674 92.0316C45.2935 86.9462 42.5736 81.6266 41.5504 75.5137C41.3095 74.7079 40.863 73.9793 40.2552 73.4002C35.2686 67.7946 33.6301 61.4931 36.0392 54.2227C36.4278 53.0521 36.2853 51.6734 36.2659 50.3988C36.0068 33.7315 44.607 22.3055 60.3568 18.9304C78.5545 15.0286 99.2974 26.2399 98.8311 49.1828C98.7858 51.4784 99.4787 53.7869 99.8025 56.089C100.683 62.0263 99.5694 67.4759 95.9169 72.3467C94.9778 73.5888 94.4856 75.5202 93.2876 76.125C91.4937 77.0289 88.9032 77.9264 87.2583 77.2761C82.3624 75.3252 77.4601 75.6958 72.6355 76.5347C68.575 77.237 66.0687 81.4706 66.2112 85.8992C66.235 87.9197 66.9432 89.8719 68.2191 91.4345C69.4951 92.997 71.2627 94.0769 73.2312 94.4962C75.1395 94.8213 77.0723 94.9801 79.0079 94.971C80.7759 95.0165 82.5956 94.9579 84.6808 94.9579Z" fill="#E8E1EF"/>
<path d="M105.761 76.3071C105.761 68.8936 105.566 62.0003 105.89 55.068C105.974 53.2537 107.703 51.5369 108.591 49.7355C109.193 48.5129 110.216 47.1668 110.106 45.9637C108.26 26.0318 90.2634 9.00024 70.8935 7.8622C46.8608 6.44453 28.8314 23.5346 25.3862 42.8032C24.8616 45.7361 23.929 48.4934 27.2318 50.8605C28.527 51.81 29.1099 54.4827 29.1747 56.4076C29.4337 61.8117 29.3172 67.2353 29.246 72.6653C29.1877 77.6987 25.5027 81.373 20.6845 81.3535C15.9894 81.3535 12.3822 77.8939 12.2657 72.8995C12.1102 67.2743 12.0973 61.6297 12.311 55.9915C12.3823 54.2682 12.8939 51.862 14.0855 51.0166C16.9997 48.9486 17.0839 46.0613 17.5307 43.1479C21.1638 19.2751 41.6605 0.975441 64.806 0.0194882C76.9697 -0.539326 88.9326 3.28052 98.5409 10.7914C108.149 18.3022 114.772 29.0106 117.217 40.9889C117.509 42.1446 117.679 43.3283 117.722 44.52C117.722 47.0497 118.758 48.7796 120.558 50.5874C121.854 51.888 122.579 54.2031 122.676 56.1085C122.955 61.6231 122.916 67.1638 122.747 72.6784C122.553 79.0189 117.456 82.433 111.291 80.7747C110.131 80.4742 108.902 80.6082 107.833 81.1519C102.151 84.492 95.839 86.6091 89.2985 87.3688C87.9606 87.603 86.6976 88.1535 85.6136 88.9751C83.3017 90.6269 75.0447 91.4137 72.9594 89.5083C71.716 88.3833 70.5502 86.0682 70.8611 84.618C71.2108 83.0247 73.1601 80.8202 74.6367 80.6186C78.4511 80.1114 82.5958 79.0709 86.0864 82.1078C86.6146 82.4464 87.25 82.574 87.8673 82.4655C94.3239 81.6201 100.521 79.9748 105.761 76.3071Z" fill="#E8E1EF"/>
</g>
<defs>
<clipPath id="clip0_3315_161">
<rect width="135" height="150" fill="white"/>
</clipPath>
</defs>
</svg>
