<svg width="98" height="35" viewBox="0 0 98 35" fill="none" xmlns="http://www.w3.org/2000/svg">
<g clip-path="url(#clip0_3292_62)">
<path d="M97.2712 22.9242C96.5139 18.2204 92.2946 14.502 87.4362 14.3169C83.8052 14.1795 80.8053 15.5 78.5545 18.3044C76.6656 20.658 76.0055 23.3601 76.4749 26.3224C76.6934 27.7109 77.2148 28.9871 77.9719 30.1746C78.1303 30.4244 78.1939 30.6776 78.0725 30.9445C77.8332 31.4678 77.58 31.9821 77.2148 32.4363C76.8563 32.8825 76.3789 33.1289 75.8194 33.2435C75.2033 33.3696 74.579 33.373 73.9536 33.3662C73.1109 33.3594 72.4243 33.029 71.9144 32.3727C71.1549 31.3929 70.9121 30.2382 70.9029 29.0529C70.8705 25.0519 70.8798 21.052 70.8786 17.0509C70.8775 16.2074 71.4335 15.6646 72.3017 15.6442C72.608 15.6374 72.9155 15.6408 73.223 15.6385C73.9282 15.6362 73.9212 15.6362 73.9074 14.9437C73.9039 14.7689 73.8508 14.7234 73.6796 14.7291C73.1884 14.7416 72.6959 14.737 72.2046 14.7359C71.8126 14.7359 71.4925 14.5781 71.2266 14.3034C70.9492 14.0195 70.844 13.6709 70.844 13.2849C70.8451 12.6673 70.8451 12.0496 70.8451 11.3571C70.7631 11.4479 70.7353 11.4717 70.7145 11.5013C69.8567 12.665 69.0013 13.8322 68.1424 14.9936C68.0557 15.1094 68.0464 15.2309 68.0476 15.3626C68.0834 19.4136 68.1089 23.4646 68.1585 27.5156C68.1724 28.5794 68.1042 29.6478 68.2476 30.7083C68.4869 32.4681 70.044 34.0905 71.8058 34.4437C72.9387 34.6707 74.082 34.6888 75.2321 34.6265C76.8841 34.5345 78.0991 33.7863 78.8493 32.3239C79.158 31.7244 79.1603 31.7415 79.6805 32.2002C82.5266 34.7184 85.8386 35.5687 89.5363 34.6366C94.8702 33.2923 98.1354 28.2809 97.2747 22.9276L97.2712 22.9242ZM94.6332 29.0972C93.7788 30.9081 92.3159 32.006 90.3595 32.4465C87.9633 32.9847 85.7415 32.4442 83.6942 31.1987C81.0018 29.5592 79.2586 27.2329 78.6112 24.1594C78.5164 23.7053 78.4945 23.2432 78.491 22.7857C78.4112 20.4843 79.4643 18.7551 81.3001 17.4222C82.3081 16.691 83.4746 16.4061 84.6988 16.364C87.4223 16.2743 89.7323 17.2882 91.7288 19.0355C93.3654 20.4661 94.512 22.2123 95.01 24.3264C95.3931 25.9511 95.3602 27.5576 94.6332 29.0972Z" fill="#B89068"/>
<path d="M48.2475 14.3026C42.4212 14.2821 37.6885 18.903 37.6758 24.6264C37.6631 30.3226 42.375 34.9685 48.1851 34.9901C53.9894 35.0116 58.7476 30.3657 58.766 24.6571C58.7834 18.9735 54.06 14.3241 48.2464 14.3037L48.2475 14.3026ZM55.6252 29.7754C54.6981 31.3535 53.2924 32.3094 51.4925 32.6909C49.3076 33.153 47.2499 32.7217 45.3378 31.6612C42.4652 30.0682 40.5554 27.7146 39.8814 24.5175C39.3902 22.1944 39.8306 20.0566 41.619 18.3229C42.7461 17.2318 44.1345 16.6675 45.7008 16.6039C49.5122 16.4541 52.3849 18.1708 54.6009 21.0716C55.8044 22.6452 56.4436 24.4391 56.4633 26.4226C56.4772 27.6124 56.2321 28.7422 55.6252 29.7754Z" fill="#B89068"/>
<path d="M60.972 24.2127C60.972 21.791 60.9743 19.3704 60.9708 16.9487C60.9708 16.2493 60.6702 15.8258 60.0841 15.6657C60.0252 15.6498 59.9616 15.626 59.9049 15.635C59.5604 15.6873 59.4518 15.5363 59.5085 15.2195C59.5246 15.1321 59.5211 15.0378 59.5085 14.9493C59.4807 14.7608 59.5547 14.7154 59.7432 14.7154C61.4332 14.7097 63.1233 14.6984 64.8122 14.6768C65.0191 14.6745 65.0943 14.737 65.0654 14.9312C65.0608 14.9607 65.0654 14.9913 65.0654 15.022C65.062 15.1923 65.1139 15.3921 65.04 15.5227C64.9694 15.6453 64.7417 15.5919 64.5869 15.634C64.1371 15.7554 63.7926 16.1516 63.751 16.6081C63.7417 16.708 63.7406 16.809 63.7406 16.9089C63.7661 21.8012 63.7926 26.6947 63.8192 31.587C63.8239 32.3261 64.1834 32.6996 64.9382 32.7281C65.1267 32.7349 65.1764 32.7792 65.1775 32.9642C65.1822 33.6397 65.1891 33.6409 64.4989 33.6443C62.9626 33.6522 61.4263 33.6545 59.89 33.6704C59.6784 33.6726 59.5824 33.6261 59.6206 33.4104C59.6229 33.4002 59.6206 33.3899 59.6206 33.3798C59.6206 33.1993 59.5697 32.9971 59.6356 32.8427C59.7188 32.6474 59.9605 32.7803 60.1293 32.7349C60.7037 32.5793 61.0517 32.141 61.0482 31.5053C61.0367 29.1141 61.0194 26.7231 61.0032 24.332C61.0032 24.2923 61.0032 24.2514 61.0032 24.2116C60.9916 24.2116 60.9813 24.2116 60.9697 24.2116L60.972 24.2127Z" fill="#B89068"/>
<path d="M64.0107 9.63673C64.0199 9.72414 63.9575 9.75476 63.9171 9.79449C63.4015 10.31 62.8824 10.822 62.3703 11.3386C62.2801 11.4294 62.2235 11.4408 62.1264 11.3454C61.6004 10.8266 61.071 10.3111 60.5369 9.80018C60.4409 9.70821 60.4421 9.65598 60.5357 9.56401C61.064 9.04741 61.5866 8.52519 62.1091 8.00292C62.1842 7.92685 62.2374 7.89619 62.331 7.98816C62.8639 8.51384 63.4037 9.03385 63.9413 9.55614C63.9691 9.58335 63.9933 9.61511 64.013 9.63673H64.0107Z" fill="#B89068"/>
<path d="M35.6349 22.9356C35.1263 19.5851 33.1923 17.1997 30.1613 15.6432C29.2399 15.1697 28.2423 14.9085 27.2181 14.7371C26.7314 14.6554 26.5186 14.2761 26.6643 13.8186C26.6979 13.713 26.7383 13.6108 26.7753 13.5063C27.7336 10.7883 27.5417 8.1565 26.1533 5.61895C25.4343 4.30193 24.38 3.28237 23.2125 2.34115C20.2369 -0.059023 15.9307 -0.183914 12.8546 2.08796C12.4061 2.41949 11.9182 2.66586 11.3876 2.82368C10.6975 3.02804 10.0802 3.33459 9.59928 3.94769C9.48132 3.40612 9.73452 3.0235 9.97613 2.63861C10.4131 1.93923 10.2859 1.28525 9.83626 0.643771C9.37619 -0.0102022 8.73689 -0.0964899 8.01438 0.0794918C7.08726 0.303159 6.5659 1.02185 6.70693 1.86883C6.83641 2.64202 7.5566 3.15521 8.25367 2.96901C8.3635 2.93948 8.48834 2.90656 8.4895 2.77032C8.49181 2.63634 8.36465 2.63521 8.26639 2.61591C7.69879 2.50577 7.43984 1.91311 7.74503 1.43398C8.00051 1.03093 8.51031 0.850407 8.88139 1.02866C9.30679 1.23416 9.54146 1.7973 9.3704 2.22761C9.25245 2.52621 9.0895 2.80892 9.01199 3.12342C8.88948 3.62411 8.76 4.12821 9.123 4.59371C9.18892 4.68001 9.1565 4.76516 9.12879 4.85145C8.85596 5.69616 8.96459 6.49773 9.42475 7.25162C9.50564 7.38559 9.48595 7.45939 9.37851 7.55362C9.15418 7.75232 8.88023 7.86585 8.62128 8.00777C8.14501 8.27117 7.92421 8.5993 7.99126 8.94784C8.05947 9.29303 8.43748 9.58029 8.9311 9.65633C8.97154 9.66201 9.01315 9.66429 9.05359 9.66884C9.97729 9.75625 10.7657 9.44291 11.4443 8.85133C11.6153 8.70262 11.7784 8.63677 12.0107 8.63677C13.25 8.6379 14.3782 7.85336 14.7759 6.70436C15.1365 5.66437 14.9504 4.70725 14.258 3.84437C13.7887 3.25966 13.8419 2.77599 14.4811 2.41495C16.5052 1.26936 18.5618 1.13766 20.6207 2.33433C21.9142 3.08595 22.7154 4.26106 23.3616 5.54629C23.9604 6.73843 24.2586 8.01572 24.3581 9.34071C24.521 11.5138 24.1453 13.5836 23.1049 15.5182C22.3744 16.8807 21.3408 17.9252 19.7964 18.3953C18.934 18.6587 18.0451 18.6802 17.1504 18.6689C15.9319 18.653 14.7158 18.5371 13.495 18.6393C9.87091 18.9437 6.86415 20.3617 4.69316 23.3023C4.61109 23.4147 4.57987 23.6498 4.39953 23.585C4.25966 23.535 4.30011 23.3216 4.29896 23.1729C4.277 19.2025 4.25618 15.2321 4.23306 11.2618C4.21573 8.44716 4.19492 5.63258 4.17874 2.818C4.17526 2.1697 4.51514 1.7394 5.10239 1.60656C5.25614 1.5725 5.47347 1.66787 5.55439 1.51686C5.62259 1.38971 5.57289 1.20237 5.57519 1.04228C5.57635 0.982109 5.57057 0.921935 5.57751 0.861761C5.59485 0.711892 5.52549 0.67556 5.3833 0.676696C3.65044 0.692591 1.91873 0.701674 0.187029 0.715298C0.110732 0.716434 0.00669071 0.693726 0.00322268 0.815211C-0.00140137 1.04569 -0.00140137 1.27844 0.0055347 1.50892C0.00900273 1.65084 0.126916 1.61906 0.21246 1.61906C0.485279 1.62018 0.741913 1.67469 0.963865 1.83818C1.35344 2.12202 1.46442 2.51599 1.46673 2.97581C1.51644 12.153 1.57077 21.3314 1.62627 30.5085C1.62857 30.9604 1.64244 31.4122 1.6332 31.8642C1.61933 32.5317 1.20085 33.0426 0.584696 33.0608C0.203213 33.0733 0.144256 33.23 0.187029 33.5309C0.193964 33.5797 0.195121 33.6319 0.188184 33.6808C0.151192 33.9237 0.236737 34.0043 0.501463 34.0021C8.97618 33.9464 17.4497 33.8999 25.9245 33.8522C27.3694 33.8442 28.7439 33.5354 30.0526 32.9371C33.9229 31.1671 36.2569 27.057 35.6303 22.9379L35.6349 22.9356ZM11.9784 6.58743C11.4974 6.58061 11.116 6.19118 11.1218 5.71205C11.1275 5.25223 11.5182 4.87983 11.9922 4.88323C12.4893 4.88664 12.865 5.25791 12.8615 5.74158C12.858 6.22297 12.4708 6.59424 11.9795 6.58743H11.9784ZM31.7762 28.6692C30.708 31.1772 28.7023 32.324 26.0204 32.3614C22.6506 32.4068 19.2786 32.3728 15.9088 32.3728C12.539 32.3728 8.92183 32.3728 5.42838 32.3717C5.29544 32.3717 5.16135 32.3705 5.02956 32.3546C4.64345 32.3103 4.37063 32.0992 4.3741 31.72C4.3845 30.0066 4.12324 28.2707 4.58103 26.5881C5.13475 24.558 6.33701 22.9322 8.11149 21.7446C10.1588 20.3753 12.4535 19.8338 14.9135 19.8815C16.1203 19.9053 17.3272 20.0211 18.5364 19.9201C19.6011 19.8293 20.5975 19.5465 21.5339 19.0322C22.5801 18.4554 23.6136 17.8696 24.4668 17.0226C24.7846 16.7081 25.0886 16.3823 25.3615 16.0303C25.6262 15.6897 25.9707 15.5579 26.3996 15.5545C27.8781 15.541 29.0295 16.2119 30.0168 17.2134C31.419 18.6325 32.1692 20.3719 32.4917 22.2919C32.8594 24.4774 32.6513 26.613 31.7751 28.6703L31.7762 28.6692Z" fill="#B89068"/>
</g>
<defs>
<clipPath id="clip0_3292_62">
<rect width="98" height="35" fill="white"/>
</clipPath>
</defs>
</svg>
