<svg width="17" height="17" viewBox="0 0 17 17" fill="none" xmlns="http://www.w3.org/2000/svg">
<g clip-path="url(#clip0_3458_437)">
<path d="M8.51072 16.9992C7.38071 16.9992 6.25069 16.9992 5.12068 16.9992C3.89059 17.0042 2.70016 16.5643 1.76882 15.7607C0.837484 14.957 0.228018 13.8438 0.0527733 12.6262C0.0199745 12.3998 0.00362977 12.1713 0.00385833 11.9426C-0.000146787 9.68245 -0.000146787 7.4223 0.00385833 5.16216C0.00900776 2.66113 1.66069 0.62571 4.11139 0.106879C4.44756 0.0389693 4.78973 0.0051816 5.13269 0.0060301C7.37141 -0.00255273 9.6097 2.22764e-05 11.8484 0.00216798C14.4291 0.00474283 16.5481 1.82001 16.9468 4.37125C16.9802 4.59024 16.997 4.81146 16.997 5.03299C17.0004 7.3289 17.0004 9.6248 16.997 11.9207C16.9915 13.1396 16.5499 14.3162 15.7523 15.2378C14.9547 16.1594 13.8537 16.7652 12.6483 16.9455C12.4005 16.9803 12.1506 16.9975 11.9003 16.997C10.7709 17.0022 9.64102 16.9992 8.51072 16.9992ZM8.50686 15.4079C9.66548 15.4079 10.8241 15.4216 11.9827 15.4049C13.8683 15.377 15.4032 13.8201 15.4084 11.9379C15.4144 9.64912 15.4144 7.36137 15.4084 5.07462C15.4037 3.15893 13.8232 1.59214 11.9051 1.59128C9.65304 1.59128 7.40102 1.59128 5.149 1.59128C4.97068 1.59199 4.79263 1.60475 4.61603 1.62947C2.89527 1.87022 1.60147 3.33359 1.59546 5.06518C1.58774 7.36022 1.59246 9.65699 1.59546 11.9499C1.59925 12.114 1.61359 12.2777 1.63837 12.44C1.85551 14.0557 3.34498 15.3869 4.97177 15.4036C6.14756 15.4178 7.32721 15.4079 8.50686 15.4079Z" fill="#D1BBE4"/>
<path d="M8.57595 12.6764C6.24326 12.6738 4.37058 10.8105 4.38732 8.48195C4.40663 6.03585 6.4368 4.28581 8.63947 4.32272C10.9262 4.36048 12.7534 6.22167 12.75 8.57808C12.7466 10.8255 10.8589 12.6794 8.57595 12.6764ZM11.2567 8.51929C11.2713 7.04691 10.0646 5.81999 8.59055 5.8084C7.15471 5.79682 5.921 6.99841 5.87765 8.39098C5.83217 9.85649 6.97706 11.1619 8.51631 11.1941C8.87263 11.2013 9.22682 11.1375 9.55824 11.0064C9.88965 10.8754 10.1917 10.6797 10.4467 10.4307C10.7018 10.1818 10.9047 9.88457 11.0438 9.55641C11.1828 9.22825 11.2552 8.8757 11.2567 8.51929Z" fill="#9D30FD"/>
<path d="M12.0162 4.02277C12.0162 3.47047 12.4573 3.04261 13.0195 3.04647C13.2818 3.04932 13.5322 3.15624 13.7156 3.34372C13.8991 3.53119 14.0005 3.78387 13.9977 4.04616C13.9948 4.30844 13.8879 4.55886 13.7004 4.74231C13.513 4.92577 13.2603 5.02723 12.998 5.02439C12.447 5.02396 12.0153 4.58323 12.0162 4.02277Z" fill="#9D30FD"/>
</g>
<defs>
<clipPath id="clip0_3458_437">
<rect width="17" height="17" fill="white"/>
</clipPath>
</defs>
</svg>
