<svg width="17" height="17" viewBox="0 0 17 17" fill="none" xmlns="http://www.w3.org/2000/svg">
<g clip-path="url(#clip0_3458_424)">
<path d="M9.35168 7.18429C10.7077 5.25737 12.5435 5.0829 14.2847 5.5174C15.791 5.88856 16.5202 6.9976 16.8018 8.45001C16.9349 9.19709 16.9983 9.95488 16.9911 10.7136C17.0033 12.6183 16.9844 14.5252 17.0033 16.4299C17.0033 16.8433 16.931 17.0267 16.4612 17.0033C15.6295 16.9622 14.7912 16.9733 13.9596 17.0033C13.5766 17.0156 13.4531 16.9089 13.4575 16.5122C13.4787 14.7542 13.4664 12.9962 13.4675 11.2393C13.4835 10.7584 13.4405 10.2773 13.3395 9.80685C13.1168 8.91785 12.6081 8.48223 11.7564 8.44223C10.711 8.39222 9.9818 8.82673 9.70459 9.69462C9.54442 10.246 9.46933 10.8186 9.48193 11.3926C9.48193 13.0951 9.4708 14.7975 9.48861 16.4988C9.48861 16.8756 9.40289 17.0178 9.00099 17.0045C8.13039 16.9745 7.25869 16.9845 6.38809 17.0045C6.07525 17.0111 5.97061 16.9089 5.97172 16.5922C5.98063 13.0584 5.98063 9.52459 5.97172 5.9908C5.97172 5.70965 6.05299 5.5963 6.35023 5.60186C7.24087 5.61593 8.13151 5.61593 9.02214 5.60186C9.30269 5.60186 9.36949 5.71298 9.35613 5.96524C9.3372 6.31528 9.35168 6.67978 9.35168 7.18429Z" fill="#D1BBE4"/>
<path d="M0.222656 16.9022C0.222656 13.1632 0.222656 9.4242 0.222656 5.6852C1.22462 5.6852 2.22659 5.69187 3.22855 5.66631C3.61041 5.65519 3.69168 5.80743 3.68834 6.15303C3.67276 7.61434 3.67832 9.07564 3.68278 10.5369C3.68871 12.6639 3.69725 14.7908 3.70838 16.9178L3.69391 16.9322L0.222656 16.9022Z" fill="#D1BBE4"/>
<path d="M-4.21255e-06 1.97804C-0.0122504 0.67898 0.733655 0.00889005 2.20432 0C3.13726 0 3.99449 0.932344 4.00785 1.97248C4.01035 2.24156 3.95961 2.50848 3.85855 2.75794C3.75749 3.0074 3.60809 3.2345 3.41892 3.42621C3.22976 3.61793 3.00454 3.77048 2.75618 3.87514C2.50782 3.97979 2.24122 4.03449 1.97164 4.03608C0.814929 4.03942 0.012242 3.20153 -4.21255e-06 1.97804Z" fill="#9D30FD"/>
</g>
<defs>
<clipPath id="clip0_3458_424">
<rect width="17" height="17" fill="white"/>
</clipPath>
</defs>
</svg>
