<svg width="17" height="17" viewBox="0 0 17 17" fill="none" xmlns="http://www.w3.org/2000/svg">
<g clip-path="url(#clip0_3458_527)">
<path d="M12.3521 2.01894L11.0695 3.30809C10.0892 2.80514 8.99835 2.55476 7.89627 2.57976C4.98581 2.62564 2.29725 4.96796 1.87459 7.84633C1.37163 11.2775 3.41194 14.2841 6.77719 15.0699C10.2665 15.8842 13.9012 13.3715 14.3727 9.83686C14.5479 8.52586 14.3728 7.2775 13.7807 6.09323C13.6902 5.9126 13.7004 5.8019 13.8537 5.65623C14.2187 5.30445 14.5611 4.9279 14.921 4.55718C16.77 7.20175 16.8817 11.7524 13.7223 14.748C12.2285 16.1788 10.2419 16.9842 8.1712 16.9986C6.10046 17.0129 4.1029 16.2352 2.58925 14.8252C-0.547513 11.909 -0.879659 7.04443 1.84028 3.76694C4.73031 0.281139 9.44458 0.112166 12.3521 2.01894Z" fill="#D1BBE4"/>
<path d="M9.97894 4.45667C9.51393 4.91916 9.08689 5.36708 8.62846 5.77932C8.52845 5.86963 8.3131 5.85215 8.15104 5.85215C6.64288 5.84341 5.32599 6.91916 5.09677 8.35397C4.8515 9.88347 5.699 11.3088 7.14511 11.7968C7.61265 11.9553 8.11189 11.9976 8.59953 11.9201C9.08717 11.8426 9.5485 11.6476 9.94352 11.352C10.3385 11.0563 10.6553 10.6691 10.8664 10.2237C11.0775 9.7783 11.1766 9.28826 11.155 8.79607C11.144 8.47269 11.228 8.25346 11.4601 8.04006C11.8163 7.71158 12.1455 7.35397 12.4908 7.00364C13.2639 8.23525 13.1288 10.6664 11.6338 12.2134C9.89279 14.0146 7.16482 14.2454 5.17706 12.7385C4.23571 12.022 3.59024 10.986 3.36276 9.82668C3.13529 8.66734 3.3416 7.46502 3.94266 6.4472C5.16758 4.3831 7.79773 3.496 9.97894 4.45667Z" fill="#D1BBE4"/>
<path d="M15.2918 0C15.3531 0.436999 15.4261 0.815732 15.4509 1.19519C15.4677 1.46103 15.5845 1.54771 15.8313 1.5681C16.2057 1.60015 16.5773 1.66133 16.9992 1.71377C16.9189 1.81355 16.8693 1.88784 16.8073 1.94975C16.2758 2.48288 15.7378 3.00947 15.2122 3.54843C15.0662 3.70066 14.9202 3.78878 14.7012 3.71668C14.3779 3.61107 14.1435 3.72469 13.9026 3.96868C12.5565 5.33649 11.1936 6.68755 9.83002 8.03715C9.75798 8.09629 9.70492 8.17522 9.67741 8.26416C9.6499 8.35311 9.64916 8.44815 9.67527 8.53751C9.86872 9.50838 9.29056 10.3226 8.33719 10.4734C7.4488 10.614 6.64654 9.9898 6.51222 9.05463C6.36038 7.99199 7.35026 7.10779 8.47298 7.33285C8.70585 7.37946 8.82482 7.31901 8.97155 7.17116C10.3417 5.79388 11.7127 4.41661 13.0975 3.05317C13.3055 2.84778 13.3895 2.64967 13.3004 2.37946C13.215 2.12673 13.3077 1.9512 13.4938 1.77349C14.0888 1.20685 14.6691 0.621996 15.2918 0Z" fill="#9D30FD"/>
</g>
<defs>
<clipPath id="clip0_3458_527">
<rect width="17" height="17" fill="white"/>
</clipPath>
</defs>
</svg>
