<svg width="25" height="25" viewBox="0 0 25 25" fill="none" xmlns="http://www.w3.org/2000/svg">
<g clip-path="url(#clip0_3458_404)">
<path d="M8.31844 5.11929C10.8516 6.74791 13.3494 6.75526 15.8858 5.14622C15.9332 5.26742 15.9862 5.39525 16.0326 5.52584C16.6823 7.3607 16.7935 9.23736 16.5246 11.1577C16.2557 13.078 16.03 15.0006 15.7842 16.9206C15.7053 17.5455 15.5145 17.7163 14.8754 17.7116C13.0363 17.698 11.1976 17.6831 9.35917 17.667C8.76516 17.6618 8.57151 17.4904 8.48841 16.9008C8.17107 14.6543 7.81751 12.4118 7.55098 10.1592C7.35748 8.52008 7.62427 6.91698 8.20082 5.36641C8.23108 5.28631 8.27303 5.21242 8.31844 5.11929ZM13.8597 9.31924C13.5069 8.96029 13.0557 8.71391 12.5632 8.61126C12.0706 8.5086 11.5587 8.55428 11.0923 8.74251C10.6258 8.93074 10.2258 9.25308 9.94263 9.66877C9.65951 10.0845 9.50604 10.5749 9.50163 11.0779C9.49722 11.581 9.64206 12.0742 9.91785 12.4952C10.1936 12.9162 10.588 13.246 11.0511 13.443C11.5141 13.64 12.0251 13.6953 12.5194 13.6019C13.0137 13.5086 13.4692 13.2708 13.8282 12.9185C14.0704 12.6867 14.2638 12.4086 14.3969 12.1008C14.53 11.7929 14.6001 11.4615 14.603 11.126C14.6059 10.7906 14.5417 10.4579 14.414 10.1476C14.2864 9.83727 14.0979 9.55562 13.8597 9.31924Z" fill="#D1BBE4"/>
<path d="M15.2799 3.88182C13.3426 5.50693 10.496 5.27093 8.88045 3.79653C9.2897 3.2291 9.67666 2.62857 10.1294 2.08267C10.576 1.55034 11.0814 1.06083 11.5677 0.565978C11.9444 0.182492 12.3052 0.195998 12.6876 0.567817C13.645 1.49127 14.5238 2.48358 15.1694 3.66043C15.2059 3.72796 15.2378 3.79733 15.2799 3.88182Z" fill="#D1BBE4"/>
<path d="M17.1752 16.5216L17.7957 11.6412C19.2295 12.7488 20.1831 14.0853 19.7879 16.1653C19.7113 16.5688 19.4357 16.7623 19.0183 16.7215C18.4134 16.6627 17.8101 16.5911 17.1752 16.5216Z" fill="#9D30FD"/>
<path d="M6.41816 11.8623L7.11624 16.7088C6.45731 16.7692 5.83217 16.8357 5.20486 16.8809C4.83242 16.9077 4.56579 16.6953 4.49973 16.322C4.25931 14.964 4.56566 13.7565 5.52558 12.7437C5.79104 12.4631 6.07516 12.1996 6.41816 11.8623Z" fill="#9D30FD"/>
<path d="M10.5226 19.0321L13.5043 19.0635C13.5154 19.6045 13.5518 20.1646 13.5271 20.7194C13.5172 21.0088 13.2025 21.2251 12.8786 21.2274C12.3141 21.2323 11.7488 21.2306 11.1868 21.2125C10.771 21.1971 10.5353 20.945 10.5269 20.5319C10.5177 20.0336 10.5232 19.5359 10.5226 19.0321Z" fill="#9D30FD"/>
<path d="M12.9192 10.257C13.0859 10.4302 13.1976 10.6489 13.2401 10.8855C13.2826 11.122 13.254 11.3658 13.1579 11.586C13.0618 11.8062 12.9025 11.9929 12.7002 12.1225C12.498 12.2522 12.2618 12.3188 12.0215 12.3142C11.7812 12.3095 11.5477 12.2337 11.3504 12.0963C11.1531 11.9589 11.001 11.7661 10.9133 11.5424C10.8255 11.3186 10.8061 11.0739 10.8574 10.8391C10.9088 10.6044 11.0286 10.3902 11.2017 10.2236C11.3154 10.1108 11.4505 10.022 11.5992 9.96238C11.7479 9.90281 11.9071 9.87372 12.0673 9.87684C12.2274 9.87995 12.3854 9.91521 12.5317 9.98052C12.6781 10.0458 12.8098 10.1399 12.9192 10.257Z" fill="#9D30FD"/>
</g>
<defs>
<clipPath id="clip0_3458_404">
<rect width="17.03" height="17.03" fill="white" transform="translate(0 11.9399) rotate(-44.5162)"/>
</clipPath>
</defs>
</svg>
