<svg width="19" height="17" viewBox="0 0 19 17" fill="none" xmlns="http://www.w3.org/2000/svg">
<g clip-path="url(#clip0_3458_466)">
<path d="M12.7736 7.15267H6.86591V3.75727H12.7887V2.22126C12.7887 1.96094 12.7915 1.70009 12.7887 1.43978C12.7887 1.28186 12.784 1.09916 12.9824 1.06844C13.128 1.05559 13.2734 1.09405 13.3901 1.17623C14.9595 2.32204 16.5244 3.4736 18.0846 4.63091C18.3112 4.79799 18.5397 4.96291 18.7652 5.1316C19.0821 5.36874 19.0804 5.53258 18.7554 5.77242C17.1026 6.99404 15.4491 8.21477 13.7949 9.4346C13.6665 9.52945 13.5502 9.64533 13.408 9.71539C13.275 9.78061 13.0824 9.86414 12.9749 9.81833C12.8673 9.77252 12.7979 9.57634 12.795 9.44107C12.7783 8.75013 12.7887 8.05865 12.7887 7.36664C12.7881 7.30843 12.7806 7.24753 12.7736 7.15267Z" fill="#9D30FD"/>
<path d="M6.2107 14.2934V16.4966C6.2107 16.5591 6.23094 16.6281 6.2107 16.6836C6.1679 16.7914 6.12685 16.9531 6.03721 16.9854C5.97182 17.0013 5.90352 17.0037 5.83703 16.9925C5.77054 16.9813 5.70745 16.9569 5.65208 16.9208C5.03159 16.481 4.42613 16.0223 3.81488 15.5734C2.6217 14.6935 1.42871 13.8132 0.235908 12.9325C-0.0752074 12.7029 -0.0780988 12.5294 0.221451 12.3084C1.97171 11.0149 3.72274 9.72269 5.47455 8.43172C5.53527 8.38753 5.5902 8.32393 5.65959 8.30507C5.78739 8.26842 5.94528 8.20752 6.04821 8.25118C6.1338 8.28567 6.20145 8.45059 6.20377 8.55946C6.21764 9.23207 6.2107 9.90684 6.21012 10.5789V10.905H12.1306V14.2971L6.2107 14.2934Z" fill="#D1BBE4"/>
</g>
<defs>
<clipPath id="clip0_3458_466">
<rect width="19" height="17" fill="white"/>
</clipPath>
</defs>
</svg>
