<svg width="17" height="17" viewBox="0 0 17 17" fill="none" xmlns="http://www.w3.org/2000/svg">
<g clip-path="url(#clip0_3458_532)">
<path d="M14.1827 14.7964C11.6788 17.137 7.55953 17.8341 4.16563 15.8008C0.728602 13.7389 -0.823007 9.58782 0.431287 5.81654C1.72142 1.93552 5.28654 0.0432333 8.02342 0V0.391095C8.02342 3.00704 8.02806 5.62299 8.0181 8.2396C8.01315 8.38723 8.04027 8.53417 8.09756 8.67025C8.15485 8.80634 8.24096 8.92833 8.34993 9.02778C10.2042 10.8693 12.0524 12.7172 13.8947 14.5716C13.9858 14.6527 14.082 14.7278 14.1827 14.7964Z" fill="#D1BBE4"/>
<path d="M9.03094 7.94295V0.0159607C12.5662 0.0219468 16.7087 3.14206 16.9947 7.94295H9.03094Z" fill="#9D30FD"/>
<path d="M14.9108 14.0901L9.82532 8.99454H17C16.8733 10.9434 16.1638 12.6368 14.9108 14.0901Z" fill="#D1BBE4"/>
</g>
<defs>
<clipPath id="clip0_3458_532">
<rect width="17" height="17" fill="white"/>
</clipPath>
</defs>
</svg>
