<svg width="17" height="15" viewBox="0 0 17 15" fill="none" xmlns="http://www.w3.org/2000/svg">
<g clip-path="url(#clip0_3458_419)">
<path d="M13.8806 14.9552C13.0454 14.9368 12.2183 14.443 11.6639 13.5165C10.3942 11.3959 9.12769 9.27373 7.86435 7.15003C7.25218 6.12681 6.62981 5.10886 6.03804 4.07774C4.97014 2.215 6.38902 -0.0625553 8.58195 0.00131373C9.6172 0.0316021 10.4321 0.493829 10.9572 1.36297C12.2407 3.49106 13.5079 5.62376 14.7792 7.7558C15.3904 8.77858 16.001 9.80202 16.6109 10.8261C17.7142 12.6869 16.3647 14.9572 13.8806 14.9552Z" fill="#D1BBE4"/>
<path d="M5.24904 2.71872C5.30278 3.61223 5.75579 4.31018 6.18363 5.02327C6.85475 6.13867 7.51861 7.25803 8.17522 8.38133C8.23032 8.47483 8.25617 8.64471 8.20651 8.72702C7.51136 9.91551 6.80056 11.0974 6.04146 12.3656C5.99521 11.1047 5.47895 10.1743 4.42397 9.58168C3.369 8.98908 2.28817 9.04834 1.12369 9.63303L5.24904 2.71872Z" fill="#D1BBE4"/>
<path d="M5.6626 12.2424C5.6655 12.9685 5.37135 13.6661 4.84444 14.1829C4.31752 14.6996 3.60071 14.9934 2.85069 15C1.30326 15.0053 0.00409091 13.7621 9.76246e-06 12.2734C-0.00407138 10.759 1.27197 9.50331 2.8058 9.50792C4.40968 9.51384 5.65443 10.705 5.6626 12.2424Z" fill="#9D30FD"/>
</g>
<defs>
<clipPath id="clip0_3458_419">
<rect width="17" height="15" fill="white"/>
</clipPath>
</defs>
</svg>
