<svg width="69" height="69" viewBox="0 0 69 69" fill="none" xmlns="http://www.w3.org/2000/svg">
<rect width="69" height="69" rx="16" fill="url(#paint0_linear_3808_4)"/>
<g clip-path="url(#clip0_3808_4)">
<path d="M29.2008 22.7392C33.5252 25.5195 37.7894 25.5321 42.1193 22.7852C42.2003 22.9921 42.2908 23.2103 42.37 23.4333C43.4791 26.5656 43.6689 29.7694 43.2098 33.0476C42.7508 36.3259 42.3656 39.608 41.9458 42.8858C41.8112 43.9525 41.4855 44.2441 40.3944 44.2362C37.2549 44.2129 34.1159 44.1875 30.9775 44.1599C29.9634 44.151 29.6328 43.8585 29.491 42.8519C28.9492 39.0169 28.3456 35.1886 27.8906 31.3431C27.5603 28.5449 28.0157 25.8081 29 23.1611C29.0517 23.0244 29.1233 22.8982 29.2008 22.7392ZM38.6605 29.9091C38.0583 29.2964 37.288 28.8758 36.4471 28.7005C35.6062 28.5253 34.7324 28.6032 33.9361 28.9246C33.1398 29.2459 32.4569 29.7962 31.9735 30.5059C31.4902 31.2155 31.2282 32.0527 31.2207 32.9115C31.2131 33.7703 31.4604 34.6123 31.9312 35.331C32.402 36.0496 33.0753 36.6127 33.8658 36.949C34.6563 37.2853 35.5286 37.3797 36.3725 37.2203C37.2163 37.061 37.9938 36.655 38.6067 36.0536C39.0203 35.6578 39.3504 35.1832 39.5776 34.6576C39.8048 34.1321 39.9244 33.5663 39.9294 32.9936C39.9345 32.4209 39.8248 31.853 39.6068 31.3232C39.3889 30.7935 39.0671 30.3127 38.6605 29.9091Z" fill="#9D30FD"/>
<path d="M41.0849 20.6268C37.7777 23.4011 32.9181 22.9982 30.1601 20.4812C30.8588 19.5125 31.5194 18.4873 32.2923 17.5554C33.0547 16.6466 33.9175 15.8109 34.7476 14.9662C35.3907 14.3115 36.0067 14.3346 36.6595 14.9693C38.2938 16.5458 39.7941 18.2398 40.8962 20.2488C40.9586 20.3641 41.013 20.4825 41.0849 20.6268Z" fill="#9D30FD"/>
<path d="M44.3206 42.2047L45.3798 33.873C47.8276 35.7639 49.4554 38.0456 48.7808 41.5963C48.65 42.2852 48.1796 42.6156 47.4669 42.546C46.4343 42.4454 45.4043 42.3233 44.3206 42.2047Z" fill="#9D30FD"/>
<path d="M25.9567 34.2504L27.1484 42.524C26.0235 42.6272 24.9563 42.7406 23.8854 42.8179C23.2496 42.8636 22.7944 42.501 22.6817 41.8638C22.2712 39.5455 22.7942 37.4841 24.4329 35.755C24.8861 35.276 25.3712 34.8262 25.9567 34.2504Z" fill="#9D30FD"/>
<path d="M32.9636 46.4904L38.0538 46.5439C38.0728 47.4676 38.1349 48.4237 38.0927 49.3708C38.0758 49.8649 37.5385 50.2341 36.9857 50.2381C36.022 50.2465 35.0569 50.2436 34.0975 50.2127C33.3877 50.1864 32.9852 49.7561 32.9709 49.0507C32.9553 48.2001 32.9646 47.3505 32.9636 46.4904Z" fill="#9D30FD"/>
<path d="M37.0548 31.5102C37.3394 31.8058 37.5301 32.1792 37.6026 32.583C37.6751 32.9868 37.6263 33.403 37.4623 33.779C37.2982 34.1549 37.0263 34.4736 36.681 34.6949C36.3357 34.9162 35.9325 35.03 35.5223 35.022C35.1121 35.014 34.7134 34.8846 34.3767 34.6501C34.0399 34.4155 33.7802 34.0865 33.6304 33.7044C33.4806 33.3224 33.4474 32.9046 33.5351 32.5039C33.6227 32.1032 33.8272 31.7375 34.1228 31.4532C34.3168 31.2606 34.5476 31.1089 34.8014 31.0072C35.0553 30.9055 35.327 30.8558 35.6004 30.8612C35.8739 30.8665 36.1435 30.9267 36.3934 31.0382C36.6432 31.1497 36.8681 31.3102 37.0548 31.5102Z" fill="#9D30FD"/>
</g>
<defs>
<linearGradient id="paint0_linear_3808_4" x1="69" y1="69" x2="-74.8527" y2="-22.4866" gradientUnits="userSpaceOnUse">
<stop stop-color="white"/>
<stop offset="0.598826" stop-color="#E0BEFE"/>
<stop offset="1" stop-color="#9D30FD"/>
</linearGradient>
<clipPath id="clip0_3808_4">
<rect width="29.0726" height="29.0726" fill="white" transform="translate(15 34.3831) rotate(-44.5162)"/>
</clipPath>
</defs>
</svg>
