<svg width="69" height="68" viewBox="0 0 69 68" fill="none" xmlns="http://www.w3.org/2000/svg">
<rect width="69" height="68" rx="16" fill="url(#paint0_linear_3807_3)"/>
<path d="M31.0011 21.6758L45.459 36.1395L40.5187 38.488C38.1702 39.6004 35.8256 40.7225 33.4597 41.8021C33.1854 41.9277 32.6601 41.9412 32.4824 41.7674C29.9717 39.3243 27.4977 36.8406 24.9985 34.3472L31.0011 21.6758Z" fill="#9D30FD"/>
<path d="M23.7199 36.1724L30.806 43.2507C29.5912 44.5563 28.3937 46.0279 27.0012 47.2852C25.9274 48.2509 24.3186 48.0829 23.212 47.0709C22.1053 46.0588 21.0721 45.0314 20.0774 43.9421C18.9302 42.6848 18.9496 41.0277 20.1103 39.7627C21.0431 38.7468 22.0532 37.8005 23.0324 36.8252C23.2583 36.6069 23.492 36.3906 23.7199 36.1724Z" fill="#9D30FD"/>
<path d="M28.8882 48.4962L31.7369 45.6899C32.7624 46.6556 33.8614 47.5788 34.827 48.6371C35.4856 49.3672 35.2133 50.6824 34.4408 51.3198C34.0665 51.6559 33.5778 51.836 33.075 51.8231C32.5721 51.8102 32.0933 51.6052 31.7369 51.2502C30.7693 50.3599 29.8461 49.4309 28.8882 48.4962Z" fill="#9D30FD"/>
<path d="M37.332 24.8643C40.314 24.0164 42.7397 26.4093 42.3535 29.8394C41.4554 28.9432 40.6674 28.1495 39.8737 27.3634C39.0799 26.5774 38.2398 25.7546 37.332 24.8643Z" fill="#9D30FD"/>
<path d="M40.8875 19.563C40.8875 20.0767 41.0169 20.6387 40.8489 21.0868C40.6982 21.473 40.2443 21.952 39.8677 22.008C39.5761 22.0524 38.9349 21.5348 38.9021 21.22C38.7813 20.0754 38.7813 18.9212 38.9021 17.7765C38.9349 17.4636 39.5896 16.9499 39.8793 17.0039C40.254 17.0658 40.7059 17.5505 40.845 17.9484C41.0072 18.4312 40.8875 19.0183 40.8875 19.563Z" fill="#9D30FD"/>
<path d="M47.5698 28.2559C47.058 28.2559 46.4999 28.3795 46.0441 28.2192C45.6404 28.0743 45.0977 27.6263 45.0784 27.2883C45.0591 26.9503 45.5786 26.3014 45.9186 26.2608C47.0309 26.1276 48.1551 26.1276 49.2675 26.2608C49.5977 26.3014 50.1037 26.9619 50.0767 27.3018C50.0496 27.6417 49.4973 28.0743 49.0936 28.2134C48.6378 28.3795 48.0836 28.2559 47.5698 28.2559Z" fill="#9D30FD"/>
<path d="M43.0796 23.0721C43.2225 22.7303 43.2573 22.4928 43.3983 22.3382C44.1708 21.529 44.9317 20.687 45.7989 19.9859C46.0519 19.7812 46.8013 19.843 47.0427 20.0747C47.2841 20.3065 47.3749 21.0674 47.1798 21.3089C46.4364 22.188 45.624 23.0062 44.7502 23.7558C44.5571 23.9335 44.0569 23.949 43.7961 23.837C43.491 23.7018 43.3017 23.329 43.0796 23.0721Z" fill="#9D30FD"/>
<defs>
<linearGradient id="paint0_linear_3807_3" x1="69" y1="68" x2="-73.6357" y2="-24.0466" gradientUnits="userSpaceOnUse">
<stop stop-color="white"/>
<stop offset="0.598826" stop-color="#E0BEFE"/>
<stop offset="1" stop-color="#9D30FD"/>
</linearGradient>
</defs>
</svg>
