<svg width="76" height="95" viewBox="0 0 76 95" fill="none" xmlns="http://www.w3.org/2000/svg">
<g clip-path="url(#clip0_3293_106)">
<path d="M60.2179 10.9445V0H15.7671V15.8916C8.94122 17.5373 3.83789 23.8787 3.83789 31.6261C3.83789 39.0332 8.82815 44.9256 15.7671 46.5241V55.6695H60.2179V18.3908C62.1969 18.2716 63.5453 16.8604 63.5453 15.0105C63.5457 13.1738 62.2969 11.6592 60.2179 10.9445ZM15.7675 44.4007C10.4683 43.2383 5.65376 38.6758 5.65376 31.6261C5.65376 24.8592 9.92662 19.2261 15.7568 17.5883C15.7621 17.5883 15.7621 17.5883 15.7675 17.5858V44.4007ZM17.3978 17.2374C18.006 17.1498 18.6277 17.1052 19.26 17.1052C21.7824 17.1052 24.0945 17.9876 25.9169 19.48C25.5333 20.6701 25.3284 21.9282 25.3284 23.2373C25.3284 26.9329 26.8792 30.2189 29.2991 32.282C29.2991 32.4156 29.1965 32.6015 29.1527 32.7271C29.0994 32.8791 29.0422 33.0309 28.9836 33.1814C28.8677 33.4787 28.74 33.7705 28.6016 34.0587C28.33 34.6215 28.0171 35.1648 27.6631 35.6806C26.9776 36.6807 26.1364 37.5775 25.1674 38.3159C24.2117 39.0425 23.1334 39.612 21.9861 39.9836C20.4952 40.4669 18.9498 40.5021 17.3978 40.5335V17.2374ZM36.3219 30.1743C35.7257 31.1117 35.1399 32.0829 34.5435 33.0598C33.3482 32.9772 32.2327 32.5741 31.2505 31.9194C31.5633 30.7019 31.7296 29.4136 31.7296 28.0771C31.7296 24.4822 30.296 21.2997 27.9892 19.0322C30.0073 14.2944 35.3316 11.2954 40.7533 11.2954C44.0505 11.2954 46.7883 12.1096 48.7426 13.615C44.7463 16.8173 41.1112 22.4242 36.3219 30.1743ZM51.0322 16.3144C51.7108 17.6 52.0742 19.1096 52.0742 20.8167C52.0742 24.8998 48.9009 29.127 43.3675 29.9047C46.924 23.6968 49.006 19.2104 51.0322 16.3144ZM29.9234 28.0771C29.9234 28.936 29.8515 29.766 29.7103 30.5684C28.1171 28.7749 27.1346 26.1683 27.1346 23.2373C27.1346 22.4387 27.2185 21.6689 27.3796 20.9318C28.9662 22.8419 29.9234 25.3305 29.9234 28.0771ZM17.3978 41.9539C18.8115 41.9539 20.205 41.9735 21.5933 41.6672C22.7926 41.404 23.9469 40.9563 25.009 40.3477C26.0672 39.7415 27.0296 38.9796 27.8682 38.1024C28.7253 37.2017 29.4522 36.1832 30.0312 35.0889C30.3294 34.5245 30.5888 33.9421 30.8086 33.3438C31.7057 33.8542 32.6827 34.217 33.7156 34.399C33.6411 34.399 33.102 35.3638 33.0328 35.4671C32.7958 35.8285 32.5548 36.1871 32.3086 36.5419C31.8202 37.2477 31.3077 37.9376 30.762 38.6026C29.6852 39.9131 28.4699 41.124 27.0709 42.1045C25.6107 43.1269 23.9628 43.8692 22.219 44.279C20.6603 44.6455 18.9964 44.7909 17.3978 44.6521V41.9539ZM58.5852 54.0569H17.3978V46.8188C27.6153 47.6159 34.7818 43.9267 42.2374 31.8239C42.3238 31.6812 43.547 32.6289 43.6536 32.7349C44.0556 33.1278 44.3725 33.5937 44.6293 34.0887C45.2017 35.1961 45.4839 36.432 45.7448 37.639C46.0227 38.9507 46.2584 40.2742 46.6604 41.5573C47.041 42.7775 47.5867 43.9779 48.4815 44.9217C49.4907 45.9861 50.8616 46.5791 52.3041 46.8188C54.5777 47.1931 56.7082 46.6643 58.5852 45.3721V54.0569ZM58.5852 41.8217C58.5852 43.8222 56.8327 44.8575 55.0264 44.8575C53.0592 44.8575 50.9248 43.2449 50.2678 37.9205C49.6127 32.917 46.8217 31.3041 43.8692 31.3041V30.9808C49.1219 30.9808 56.666 26.463 56.666 20.8167C56.666 17.9849 55.4947 15.5396 53.4343 13.6648C54.6577 12.7236 56.0365 12.2641 57.8154 12.2641C58.0174 12.2641 58.3881 12.2705 58.5852 12.2915V41.8217ZM58.5856 10.5452C58.2625 10.5072 57.6991 10.4875 57.3241 10.4875C55.0387 10.4875 53.0205 11.006 51.1372 12.0166C48.5002 10.5242 45.0511 9.68243 41.0806 9.68243C34.4716 9.68243 28.9556 13.0064 26.5823 17.8424C24.5271 16.3551 21.9967 15.4897 19.26 15.4897C18.6302 15.4897 18.0221 15.5264 17.4097 15.6049H17.3978V1.61288H58.5856V10.5452ZM60.2179 17.2558V12.742C61.3251 13.2341 62.0694 14.0824 62.0694 15.1716C62.0694 16.3669 61.3668 17.1498 60.2179 17.2558Z" fill="#93681C"/>
<path d="M0.504356 74.0725V65.3721C0.504356 64.9651 0.504356 64.9651 0 64.0199H5.0792C7.84487 64.0199 9.37575 65.4049 9.37575 67.1645C9.37575 68.6146 8.38422 69.7059 6.60989 70.097L9.60179 73.7793C10.3498 74.7081 10.3498 74.7081 11.0979 75.4252H7.86227L3.86161 70.2605H3.04395V74.0079C3.04395 74.4313 3.04395 74.4313 3.73977 75.4252H0C0.504356 74.4636 0.504356 74.4636 0.504356 74.0725ZM4.453 69.1195C6.01847 69.1195 6.74909 68.3537 6.74909 67.2132C6.74909 66.0568 6.01847 65.3075 4.453 65.3075H3.04395V69.1195H4.453Z" fill="#93681C"/>
<path d="M12.1245 71.075V65.3721C12.1245 64.9651 12.1245 64.9651 11.6201 64.0199H15.2554C14.664 64.981 14.664 64.981 14.664 65.3885V71.2211C14.664 72.9484 15.7774 74.0725 17.6212 74.0725C19.3956 74.0725 20.4567 72.9321 20.4567 71.2211V65.3885C20.4567 64.981 20.4567 64.981 19.8305 64.0199H22.6832C22.196 64.981 22.196 64.981 22.196 65.3885V71.0258C22.196 74.0238 20.3696 75.6692 17.2037 75.6692C14.0032 75.6692 12.1245 74.0889 12.1245 71.075Z" fill="#93681C"/>
<path d="M25.1883 74.073V64.5253L24.7011 64.0204H27.7105L33.8856 71.3036V65.389C33.8856 64.9815 33.8856 64.9815 33.2422 64.0204H36.0599C35.5729 64.9815 35.5729 64.9815 35.5729 65.3726V75.5395H34.3556L26.8756 66.9692V74.0566C26.8756 74.4641 26.8756 74.4641 27.5714 75.4252H24.6837C25.1883 74.4641 25.1883 74.4641 25.1883 74.073Z" fill="#93681C"/>
<path d="M37.3823 64.0203H41.2442C40.6004 64.9978 40.6004 64.9978 40.8264 65.6821L42.9313 71.9873L46.0274 63.9875H47.4715L50.5503 71.9709L52.6553 65.6821C52.899 64.9819 52.899 64.9819 52.29 64.0203H55.2123C54.673 64.965 54.673 64.965 54.3077 65.9589L50.794 75.539H49.5589L46.3058 67.3926L43.0009 75.5226L41.7485 75.539L38.1824 65.7636C37.8693 64.8835 37.8693 64.8835 37.3823 64.0203Z" fill="#93681C"/>
<path d="M55.3693 73.5189L59.614 63.9712H61.336L65.6151 73.6168C66.0328 74.5456 66.0328 74.5456 66.5369 75.4252H62.6231C63.1796 74.4154 63.1796 74.4154 62.9188 73.7634L62.3623 72.4108H57.6135L57.0217 73.8285C56.7613 74.48 56.7613 74.48 57.335 75.4252H54.395C54.9344 74.4636 54.9344 74.4636 55.3693 73.5189ZM61.8234 71.0422L60.0141 66.5945L58.1705 71.0422H61.8234Z" fill="#93681C"/>
<path d="M67.8071 75.4252C68.3112 74.4636 68.3112 74.4636 68.3112 74.0725V65.3721C68.3112 64.9651 68.3112 64.9651 67.8071 64.0199H71.3556C70.8511 64.981 70.851 64.981 70.851 65.3721V73.9751H73.0953C73.8602 73.9751 74.3299 73.9751 75.9999 72.7204L75.7219 75.4247H67.8071V75.4252Z" fill="#93681C"/>
<path d="M13.5922 85.0848V80.1289C13.5922 79.8969 13.5922 79.8969 13.3184 79.3583H16.0739C17.5744 79.3583 18.4049 80.1472 18.4049 81.1498C18.4049 81.9758 17.867 82.5979 16.9044 82.8202L18.5275 84.918C18.9331 85.447 18.9331 85.447 19.3389 85.8554H17.5839L15.4134 82.9133H14.9698V85.0482C14.9698 85.2893 14.9698 85.2893 15.3473 85.8554H13.3184C13.5922 85.3076 13.5922 85.3076 13.5922 85.0848ZM15.7342 82.2633C16.5835 82.2633 16.9799 81.8273 16.9799 81.1773C16.9799 80.5185 16.5835 80.0913 15.7342 80.0913H14.9698V82.2633H15.7342Z" fill="#93681C"/>
<path d="M22.7931 85.8549C23.0668 85.3076 23.0668 85.3076 23.0668 85.0848V80.1289C23.0668 79.8969 23.0668 79.8969 22.7931 79.3583H27.3321V80.7042C26.6717 80.1472 26.4639 80.1472 26.1241 80.1472H24.4446V82.0684H25.8127C26.1147 82.0684 26.2659 82.0684 26.8038 81.7063V83.2195C26.2659 82.8574 26.1053 82.8574 25.8033 82.8574H24.4446V85.066H25.9448C26.3412 85.066 26.5679 85.066 27.4264 84.4261L27.2757 85.8554H22.7931V85.8549Z" fill="#93681C"/>
<path d="M31.2674 84.769L33.57 79.3303H34.504L36.8255 84.8249C37.052 85.3539 37.052 85.3539 37.3257 85.8549H35.2023C35.5043 85.2796 35.5043 85.2796 35.3628 84.9083L35.0608 84.1382H32.4847L32.1639 84.9454C32.0223 85.3168 32.0223 85.3168 32.3337 85.8549H30.7389C31.0314 85.3076 31.0314 85.3076 31.2674 84.769ZM34.7681 83.3584L33.7866 80.8248L32.7865 83.3584H34.7681Z" fill="#93681C"/>
<path d="M40.8456 85.8549C41.1197 85.3076 41.1197 85.3076 41.1197 85.0848V80.1289C41.1197 79.8969 41.1197 79.8969 40.8456 79.3583H42.7709C42.497 79.9061 42.497 79.9061 42.497 80.1289V85.0293H43.7146C44.1296 85.0293 44.3844 85.0293 45.2904 84.3147L45.1396 85.8554H40.8456V85.8549Z" fill="#93681C"/>
<path d="M47.7534 79.3583H53.302V80.8527C52.6602 80.1752 52.4528 80.1752 52.1037 80.1752H51.2167V85.0853C51.2167 85.3168 51.2167 85.3168 51.5471 85.8554H49.4427C49.8389 85.2796 49.8389 85.2796 49.8389 85.0477V80.1752H48.9429C48.5937 80.1752 48.3861 80.1752 47.7537 80.8527L47.7534 79.3583Z" fill="#93681C"/>
<path d="M58.9266 85.0477V83.1173L57.2467 80.3334C56.9261 79.8135 56.9261 79.8135 56.5676 79.3583H58.729C58.7192 79.8786 58.6343 79.9341 58.6343 80.0083C58.6343 80.0546 58.6623 80.1009 58.7947 80.3237L59.8704 82.1335L60.9751 80.3329C61.107 80.1197 61.1448 80.0546 61.1448 80.0175C61.1448 79.9341 61.0502 79.8598 61.0217 79.3583H62.6736C62.3054 79.8506 62.3054 79.8506 62.0318 80.2866L60.3142 83.043V85.0848C60.3142 85.3168 60.3142 85.3168 60.6447 85.8549H58.5211C58.9266 85.2796 58.9266 85.2796 58.9266 85.0477Z" fill="#93681C"/>
<path d="M17.4991 94.6137C17.3181 94.552 17.1617 94.4652 17.0295 94.3538L16.9635 93.5046C17.146 93.7582 17.3418 93.9502 17.5511 94.0799C17.7602 94.2101 17.9749 94.2747 18.1951 94.2747C18.3461 94.2747 18.4655 94.2371 18.5537 94.1609C18.6416 94.0852 18.6859 93.9839 18.6859 93.8571C18.6859 93.7549 18.6535 93.6676 18.589 93.5952C18.5246 93.5219 18.4214 93.4563 18.2801 93.3975L17.6667 93.1468C17.2544 92.9736 17.0484 92.6872 17.0484 92.2889C17.0484 92.0998 17.0979 91.932 17.1971 91.7849C17.2961 91.6383 17.433 91.5236 17.6077 91.4416C17.7822 91.3596 17.9795 91.3186 18.1998 91.3186C18.5709 91.3186 18.8933 91.4208 19.1671 91.6248V92.3626C19.0256 92.1587 18.8635 92.0029 18.681 91.8963C18.4986 91.7893 18.313 91.7362 18.1242 91.7362C17.9764 91.7362 17.8623 91.77 17.7822 91.8385C17.7019 91.9064 17.6618 91.9947 17.6618 92.1027C17.6618 92.2855 17.7751 92.4215 18.0016 92.5112L18.6621 92.7754C18.8666 92.8526 19.0247 92.9664 19.1365 93.1164C19.2481 93.2668 19.3039 93.4501 19.3039 93.6666C19.3039 93.8706 19.2536 94.0514 19.1529 94.2091C19.0522 94.3673 18.9107 94.4893 18.7282 94.5756C18.5458 94.6624 18.3381 94.7058 18.1054 94.7058C17.882 94.7068 17.6799 94.6754 17.4991 94.6137Z" fill="#93681C"/>
<path d="M21.8165 94.3842C21.8276 94.3519 21.8331 94.3075 21.8331 94.2521V91.7739C21.8331 91.715 21.8276 91.6692 21.8165 91.6369C21.8054 91.6046 21.7654 91.5216 21.6962 91.3885H22.6541C22.5881 91.525 22.5495 91.6089 22.5385 91.6417C22.5275 91.674 22.522 91.7184 22.522 91.7739V94.2521C22.522 94.3109 22.5275 94.3557 22.5385 94.3866C22.5495 94.4175 22.5881 94.5014 22.6541 94.6374H21.6962C21.7652 94.5009 21.8054 94.417 21.8165 94.3842Z" fill="#93681C"/>
<path d="M25.2797 94.3842C25.2906 94.3519 25.2962 94.3075 25.2962 94.2521V91.5323L25.1641 91.3885H25.9803L27.6555 93.4631V91.7787C27.6555 91.7353 27.6529 91.703 27.6483 91.6813C27.6435 91.6596 27.6271 91.6248 27.5989 91.5766C27.5706 91.5289 27.5311 91.4662 27.4808 91.3885H28.2452C28.1791 91.525 28.1405 91.6089 28.1296 91.6417C28.1185 91.674 28.1131 91.7184 28.1131 91.7739V94.6697H27.7828L25.7538 92.2286V94.2477C25.7538 94.2906 25.757 94.3234 25.7632 94.3446C25.7696 94.3663 25.7876 94.4015 25.8176 94.4493C25.8473 94.4975 25.8891 94.5602 25.9425 94.6374H25.1593C25.2285 94.5009 25.2685 94.417 25.2797 94.3842Z" fill="#93681C"/>
<path d="M31.3811 94.4956C31.1341 94.3547 30.943 94.1604 30.8078 93.913C30.6725 93.6656 30.605 93.384 30.605 93.0681C30.605 92.719 30.6773 92.4118 30.8218 92.1471C30.9665 91.8828 31.1712 91.6788 31.4354 91.5346C31.6997 91.3909 32.0063 91.3186 32.3554 91.3186C32.8147 91.3186 33.181 91.4242 33.4547 91.6345V92.4326C33.3134 92.2035 33.1513 92.0347 32.9688 91.9267C32.7864 91.8187 32.5788 91.7642 32.346 91.7642C32.0283 91.7642 31.7758 91.8616 31.5887 92.0569C31.4015 92.2512 31.3079 92.5208 31.3079 92.8642C31.3079 93.1207 31.3583 93.3435 31.4589 93.5321C31.5596 93.7211 31.7011 93.8658 31.8836 93.9665C32.066 94.0664 32.2753 94.117 32.5113 94.117C32.7346 94.117 32.9325 94.0765 33.1058 93.996C33.2786 93.9154 33.4124 93.8011 33.5067 93.6526C33.4753 93.996 33.3518 94.2578 33.1364 94.4372C32.9208 94.6166 32.6197 94.7063 32.2328 94.7063C31.9119 94.7068 31.6279 94.6359 31.3811 94.4956Z" fill="#93681C"/>
<path d="M35.8848 94.6369C35.9538 94.5004 35.9941 94.4165 36.0049 94.3837C36.0161 94.3514 36.0215 94.307 36.0215 94.2516V91.7734C36.0215 91.7145 36.0161 91.6687 36.0049 91.6364C35.9941 91.6036 35.9538 91.5212 35.8848 91.3881H38.1545V92.0613C38.0507 91.9711 37.9641 91.9074 37.8948 91.8684C37.8257 91.8298 37.7682 91.8057 37.7227 91.7965C37.677 91.7869 37.6193 91.7825 37.5503 91.7825H36.7106V92.7431H37.3945C37.4826 92.7431 37.5566 92.734 37.6164 92.7152C37.6761 92.6964 37.7676 92.6457 37.8902 92.5618V93.3184C37.7676 93.235 37.6755 93.1839 37.614 93.1651C37.5526 93.1468 37.478 93.1376 37.3899 93.1376H36.7106V94.2419H37.4608C37.5424 94.2419 37.6101 94.2366 37.6638 94.2255C37.7173 94.2149 37.7856 94.1869 37.8689 94.1426C37.9523 94.0973 38.063 94.024 38.2014 93.9217L38.1262 94.6364L35.8848 94.6369Z" fill="#93681C"/>
<path d="M43.8709 94.4116C43.9036 94.3547 43.9235 94.3128 43.9296 94.2862C43.9359 94.2602 43.939 94.2221 43.939 94.1729V92.1258H43.2925L44.4721 91.3654H44.5996V94.1773C44.5996 94.2269 44.6026 94.265 44.609 94.2911C44.6154 94.3176 44.6351 94.3595 44.668 94.4164C44.7011 94.4738 44.7475 94.5471 44.8072 94.6368H43.7314C43.7912 94.5438 43.8378 94.469 43.8709 94.4116Z" fill="#93681C"/>
<path d="M49.1082 91.5067C49.3107 91.6321 49.4667 91.81 49.5755 92.0405C49.6839 92.271 49.7383 92.5411 49.7383 92.8502C49.7383 93.2061 49.6682 93.5253 49.528 93.8084C49.3882 94.0919 49.1931 94.3118 48.9429 94.47C48.6931 94.6277 48.4058 94.7068 48.082 94.7068C47.8492 94.7068 47.6509 94.6624 47.4875 94.5742C47.3241 94.4859 47.2121 94.3658 47.1523 94.2144C47.3094 94.2795 47.4998 94.3118 47.7234 94.3118C48.0977 94.3118 48.4018 94.1961 48.6365 93.9637C48.8707 93.7317 49.0037 93.4101 49.0352 92.9987C48.8716 93.277 48.6025 93.4158 48.2282 93.4158C48.0235 93.4158 47.8411 93.3729 47.681 93.2861C47.5204 93.1998 47.3971 93.0807 47.3103 92.9288C47.2241 92.7774 47.1809 92.61 47.1809 92.4277C47.1809 92.2112 47.2327 92.0188 47.3363 91.8495C47.4401 91.6812 47.5844 91.5506 47.7683 91.458C47.9524 91.3649 48.1592 91.3186 48.3888 91.3186C48.6654 91.3186 48.9053 91.3813 49.1082 91.5067ZM48.0535 92.7923C48.1667 92.9177 48.3196 92.9804 48.5115 92.9804C48.6341 92.9804 48.7403 92.951 48.8298 92.8921C48.9198 92.8333 48.988 92.7513 49.0352 92.6462C49.0194 92.3366 48.9573 92.1008 48.8485 91.9383C48.7401 91.7758 48.5929 91.6947 48.4073 91.6947C48.2531 91.6947 48.1275 91.7497 48.03 91.8597C47.9325 91.9691 47.8836 92.1167 47.8836 92.3024C47.8836 92.5039 47.9402 92.6669 48.0535 92.7923Z" fill="#93681C"/>
<path d="M53.683 91.9364H51.885L52.0689 91.3885H54.367L52.8666 94.6369H52.192L53.683 91.9364Z" fill="#93681C"/>
<path d="M57.0731 94.5925C56.8765 94.5173 56.7255 94.4112 56.62 94.2747C56.5146 94.1387 56.4622 93.9825 56.4622 93.8064C56.4622 93.6237 56.522 93.4674 56.6411 93.3377C56.7608 93.2075 56.925 93.1169 57.1324 93.0638C56.9593 92.9775 56.8235 92.8632 56.7264 92.7229C56.6289 92.5821 56.5798 92.4234 56.5798 92.2469C56.5798 92.0738 56.6289 91.9166 56.7264 91.7762C56.8235 91.6354 56.9608 91.524 57.1368 91.4421C57.3129 91.3601 57.511 91.3186 57.7316 91.3186C57.9611 91.3186 58.1665 91.3528 58.3474 91.4208C58.5279 91.4888 58.6696 91.5853 58.7716 91.7087C58.8741 91.8327 58.9251 91.9749 58.9251 92.1355C58.9251 92.3057 58.8711 92.4504 58.7623 92.5695C58.6539 92.6886 58.5083 92.7745 58.3259 92.827C58.571 92.9196 58.7505 93.0368 58.8638 93.1771C58.977 93.3179 59.0339 93.4969 59.0339 93.7134C59.0339 93.9019 58.98 94.0722 58.8731 94.2241C58.7662 94.3755 58.6161 94.4941 58.4225 94.579C58.2293 94.6639 58.0081 94.7068 57.7596 94.7068C57.4987 94.7063 57.2697 94.6687 57.0731 94.5925ZM57.3163 94.1985C57.4354 94.3051 57.5943 94.3581 57.7924 94.3581C57.9684 94.3581 58.1126 94.3128 58.2244 94.2212C58.3357 94.1305 58.3921 94.0119 58.3921 93.8662C58.3921 93.7394 58.3524 93.6353 58.2739 93.5528C58.1954 93.4708 58.0694 93.4009 57.8964 93.3421L57.4624 93.1887C57.2457 93.3035 57.1368 93.4983 57.1368 93.7737C57.1368 93.9502 57.1967 94.0914 57.3163 94.1985ZM57.3232 92.3815C57.4065 92.4711 57.5316 92.544 57.6983 92.5994L57.9674 92.6973C58.1749 92.5859 58.2788 92.4031 58.2788 92.15C58.2788 92.001 58.2268 91.8799 58.1229 91.7854C58.0189 91.6909 57.8836 91.6436 57.7169 91.6436C57.5634 91.6436 57.4379 91.6832 57.3423 91.7623C57.2462 91.8409 57.1976 91.9436 57.1976 92.0704C57.1981 92.1886 57.2398 92.2918 57.3232 92.3815Z" fill="#93681C"/>
</g>
<defs>
<clipPath id="clip0_3293_106">
<rect width="76" height="95" fill="white"/>
</clipPath>
</defs>
</svg>
