<svg width="17" height="17" viewBox="0 0 17 17" fill="none" xmlns="http://www.w3.org/2000/svg">
<rect width="17" height="17" rx="5" fill="#E7DBF2"/>
<g clip-path="url(#clip0_3458_457)">
<path d="M9.63082 6.52825L8.85716 5.35316C9.39091 4.75129 9.9778 4.21335 10.7873 4.04965C11.6155 3.8843 12.3477 4.15107 12.9904 4.68983C13.696 5.28123 14.1392 6.06609 14.4614 6.92922C14.856 7.98608 15.0475 9.0829 14.9928 10.2164C14.9572 10.9398 14.7717 11.6188 14.3201 12.1942C13.671 13.021 12.6253 13.2348 11.7236 12.7253C11.1521 12.4023 10.7111 11.9261 10.3099 11.408C9.60266 10.4966 9.08698 9.46679 8.55269 8.44328C8.06437 7.50629 7.5006 6.61092 6.70994 5.90267C6.48012 5.69681 6.23171 5.51438 5.92405 5.46725C5.50428 5.40332 5.15358 5.57748 4.84087 5.85004C4.56377 6.09338 4.3491 6.39211 4.17667 6.7206C3.61552 7.77154 3.34107 8.96123 3.38282 10.1618C3.39504 10.5512 3.47422 10.9296 3.70164 11.254C3.95722 11.6191 4.29836 11.699 4.6804 11.4824C5.09274 11.2487 5.40359 10.8951 5.70008 10.5281C6.33081 9.74679 6.84437 8.88366 7.33083 8.00207L7.48599 7.7207C7.50618 7.73861 7.52238 7.74825 7.53035 7.76148C7.73759 8.11974 7.94588 8.478 8.1478 8.83791C8.17171 8.8809 8.17941 8.95862 8.15816 8.99995C7.62573 10.0364 7.05266 11.0437 6.27077 11.9021C5.93999 12.2651 5.57495 12.5845 5.13498 12.7975C4.28481 13.2087 3.30471 12.9763 2.70348 12.229C2.3015 11.7291 2.08577 11.1429 2.0321 10.5071C1.89182 8.84535 2.23083 7.28583 3.04966 5.84976C3.4418 5.1608 3.95775 4.59283 4.67642 4.25827C5.55741 3.8482 6.40015 3.92757 7.19746 4.49169C7.75167 4.88412 8.22378 5.36914 8.58617 5.95448C9.21743 6.97414 9.82743 8.00813 10.4507 9.0333C10.8227 9.64372 11.2289 10.2274 11.6973 10.7634C11.968 11.0729 12.2818 11.2958 12.6989 11.3198C13.0637 11.3408 13.3987 11.2451 13.5198 10.7601C13.6437 10.2657 13.6365 9.768 13.5831 9.26892C13.4928 8.42564 13.2757 7.61956 12.895 6.86584C12.6774 6.4351 12.4138 6.03743 12.0273 5.74945C11.46 5.3267 10.9093 5.35564 10.38 5.82909C10.1587 6.02696 9.94619 6.23503 9.72939 6.43841C9.69804 6.46845 9.6651 6.49738 9.63082 6.52825Z" fill="#9D30FD"/>
</g>
<defs>
<clipPath id="clip0_3458_457">
<rect width="13" height="9" fill="white" transform="translate(2 4.00003)"/>
</clipPath>
</defs>
</svg>
