<svg width="17" height="15" viewBox="0 0 17 15" fill="none" xmlns="http://www.w3.org/2000/svg">
<g clip-path="url(#clip0_3458_512)">
<path d="M5.73599 2.16239L7.56565 4.16372C8.14077 4.79296 8.71834 5.4197 9.28797 6.05456C9.43861 6.22248 9.54839 6.23122 9.71062 6.06268C11.1048 4.62233 12.5035 3.18657 13.9066 1.75538C14.0817 1.57685 14.0561 1.45636 13.8871 1.29656C13.487 0.918265 13.0998 0.525615 12.707 0.138583L12.7411 0.0480665C12.8314 0.0320185 12.9224 0.0211837 13.0138 0.0156083C14.2232 0.0106144 15.4326 0.0156057 16.6414 0.00124808C16.9158 -0.00187315 17.0073 0.0767818 17.0024 0.375795C16.9841 1.58246 16.9951 2.78851 16.9951 3.99642V4.39968C16.8927 4.33495 16.7947 4.26321 16.7018 4.18494C16.3907 3.87282 16.0748 3.56569 15.7821 3.23671C15.6174 3.04944 15.5052 3.05693 15.3356 3.22735C13.9219 4.64231 12.5039 6.05248 11.0816 7.45786C10.8127 7.72317 10.5328 7.99035 10.2168 8.19073C9.62829 8.56528 9.05803 8.51159 8.5006 7.96101C7.73031 7.1963 7.01736 6.37105 6.28122 5.5714C6.10802 5.38412 5.93846 5.19248 5.7433 4.97711C5.2743 5.39536 4.82848 5.79363 4.3796 6.19439C4.17407 6.38166 3.95268 6.54959 3.76971 6.75621C3.39585 7.18632 2.95185 7.33426 2.39075 7.29119C1.76379 7.24375 1.13133 7.28183 0.500099 7.27871C0.394882 7.27262 0.29005 7.26095 0.186013 7.24375L0.150635 7.15573L5.73599 2.16239Z" fill="#9D30FD"/>
<path d="M15.7729 10.4199C15.7729 11.8032 15.7729 13.1867 15.7729 14.5705C15.7729 14.9681 15.7479 14.9944 15.357 14.9962C14.7367 14.9962 14.1171 14.9906 13.4968 14.9962C13.2529 14.9962 13.151 14.9007 13.151 14.6473C13.1553 12.5248 13.151 10.4024 13.1614 8.27996C13.1738 8.12815 13.2387 7.98584 13.3443 7.87857C13.9927 7.21937 14.6525 6.56766 15.3161 5.92781C15.3917 5.85477 15.5698 5.77175 15.6076 5.80296C15.7014 5.88928 15.7589 6.00942 15.768 6.13818C15.7815 6.96031 15.7753 7.78182 15.776 8.60395C15.7743 9.21071 15.7733 9.81603 15.7729 10.4199Z" fill="#D1BBE4"/>
<path d="M5.46216 7.78186C5.97508 8.26066 6.4453 8.68577 6.89601 9.13148C6.97651 9.21138 7.01066 9.37494 7.01066 9.50041C7.01798 11.1734 7.0192 12.8462 7.01432 14.5187C7.01432 14.9476 6.96064 14.9963 6.53494 14.9969C5.93603 14.9969 5.33713 14.9894 4.73822 14.9969C4.45462 15.0019 4.35155 14.8995 4.35399 14.5968C4.36557 12.7471 4.35826 10.8975 4.36314 9.04783C4.36314 8.93235 4.38083 8.77878 4.45218 8.70824C4.80043 8.36865 5.17002 8.04779 5.46216 7.78186Z" fill="#D1BBE4"/>
<path d="M2.61946 12.0554C2.61946 12.9082 2.61215 13.7603 2.62374 14.6148C2.62801 14.897 2.52676 15.0069 2.25292 15.0025C1.62311 14.9921 0.992894 14.9921 0.36227 15.0025C0.106727 15.0062 -0.00366211 14.9151 -0.00366211 14.6411C0.00365654 12.9256 0.00365654 11.2104 -0.00366211 9.49541C-0.00366211 9.24571 0.0920962 9.1708 0.322634 9.17392C0.982532 9.18391 1.64304 9.18515 2.30294 9.17392C2.54689 9.16955 2.62251 9.26006 2.62007 9.50165C2.61398 10.3506 2.62007 11.2033 2.61946 12.0554Z" fill="#D1BBE4"/>
<path d="M11.3921 9.7345C11.4058 9.82948 11.4147 9.92512 11.4189 10.021C11.4189 11.5296 11.4189 13.038 11.4189 14.5462C11.4189 14.9445 11.372 14.9938 10.9792 14.9963C10.3693 15 9.75942 15 9.14953 14.9963C8.8147 14.9963 8.73969 14.9176 8.73908 14.5674C8.73542 13.2047 8.73907 11.842 8.73419 10.4792C8.73419 10.2969 8.77993 10.1933 8.97815 10.2295C9.81918 10.3981 10.5791 10.1733 11.2957 9.73013C11.3104 9.72701 11.3329 9.7345 11.3921 9.7345Z" fill="#D1BBE4"/>
</g>
<defs>
<clipPath id="clip0_3458_512">
<rect width="17" height="15" fill="white"/>
</clipPath>
</defs>
</svg>
