<svg width="17" height="17" viewBox="0 0 17 17" fill="none" xmlns="http://www.w3.org/2000/svg">
<g clip-path="url(#clip0_3458_459)">
<path d="M7.61484 0.000671387H9.42097C9.44487 0.0133326 9.47027 0.0228773 9.49656 0.0290749C10.7468 0.153506 11.8924 0.583602 12.9673 1.22807C13.2684 1.40931 13.5359 1.6389 13.8333 1.82622C13.9934 1.97229 14.1537 2.11881 14.3142 2.26578C14.6116 2.53628 14.8688 2.84533 15.139 3.14153C15.149 3.16126 15.1602 3.18035 15.1725 3.19868C15.6428 3.797 16.0325 4.45579 16.3314 5.15778C16.5374 5.64367 16.6839 6.14951 16.814 6.66042C16.8709 6.99854 16.9328 7.33363 16.9642 7.6748C17.0138 8.22883 17.0123 8.78631 16.9599 9.34007C16.9231 9.74346 16.8321 10.1377 16.7662 10.536C16.714 10.6589 16.676 10.7874 16.6532 10.9191L16.6415 10.9867C16.4689 11.4398 16.2986 11.8939 16.0979 12.3352C15.9642 12.5719 15.8304 12.8086 15.6966 13.0453C15.3515 13.5431 14.9744 14.0175 14.5678 14.4654C14.1149 14.8923 13.6326 15.2862 13.1245 15.6441L12.4633 16.0265C12.0636 16.2345 11.6405 16.389 11.2274 16.5675C11.1664 16.5713 11.1073 16.5909 11.0558 16.6243C10.5689 16.7379 10.0839 16.861 9.58954 16.9422C9.54491 16.941 9.50025 16.9423 9.45575 16.9459C8.72996 17.0406 8.00617 17.0135 7.28171 16.9121C6.8964 16.8597 6.5208 16.7636 6.14452 16.6754L5.44046 16.4387C5.33536 16.3841 5.22466 16.3414 5.11034 16.3112C4.88591 16.1706 4.63875 16.0769 4.40462 15.9562C4.04975 15.7452 3.70224 15.5224 3.36777 15.2799C2.9945 14.9614 2.61388 14.6524 2.28242 14.2859C2.01919 13.9954 1.78306 13.6836 1.53421 13.3817C1.39151 13.1563 1.24857 12.9309 1.10542 12.7054C1.05446 12.5721 0.986189 12.4463 0.902406 12.3311C0.870137 12.2103 0.814925 12.0969 0.739851 11.9974C0.670282 11.7523 0.56392 11.5217 0.463245 11.2873L0.349864 10.9154L0.163229 10.2053C0.158527 10.0898 0.135956 9.9757 0.0963352 9.86721C0.0628884 9.44895 0.0070352 9.03069 -0.000992032 8.61175C-0.00761133 7.95561 0.0552882 7.30064 0.18664 6.65805C0.259945 6.42597 0.320361 6.18993 0.367592 5.95103C0.430472 5.84587 0.458561 5.7282 0.486657 5.61053L0.767614 4.90317L1.1392 4.19311C1.29741 3.95642 1.4506 3.71499 1.61415 3.48304C1.87805 3.1067 2.19144 2.77297 2.49715 2.4318L3.00119 1.96553C3.28415 1.76028 3.56811 1.55741 3.84906 1.34946C4.027 1.21759 4.2424 1.14658 4.4073 0.994427C4.5284 0.958734 4.64183 0.900478 4.74176 0.822658L5.44147 0.514286C5.57124 0.498056 5.68663 0.438884 5.80537 0.389856C5.90055 0.382994 5.99253 0.352192 6.07294 0.300251L6.13983 0.28605C6.27362 0.28605 6.3967 0.228231 6.52414 0.197123C6.8867 0.110563 7.25328 0.0682967 7.61484 0.000671387ZM6.97935 13.5099C7.13521 13.5099 7.29108 13.5061 7.44761 13.5099C7.54326 13.5129 7.59477 13.4892 7.62521 13.3834C7.7687 12.8867 7.92623 12.394 8.07373 11.8987C8.68692 9.85324 9.30011 7.80791 9.9133 5.76269C10.1247 5.05736 10.3384 4.35304 10.5488 3.64804C10.6073 3.45261 10.6047 3.45159 10.3936 3.45159H9.84206C9.38786 3.45159 9.38351 3.45159 9.25407 3.88135C8.55481 6.21172 7.85688 8.54254 7.1603 10.8738C6.91502 11.6921 6.66974 12.5103 6.42447 13.3286C6.37062 13.5082 6.36928 13.5082 6.5616 13.5085L6.97935 13.5099ZM14.931 8.47176C14.9116 8.44877 14.8885 8.41766 14.8618 8.39061C14.0091 7.53109 13.1569 6.67236 12.3051 5.81442C12.2248 5.73293 12.176 5.74443 12.1021 5.81983C11.9141 6.01155 11.7224 6.20056 11.5231 6.38011C11.4194 6.47343 11.4187 6.53261 11.5204 6.63235C12.0997 7.20074 12.67 7.77894 13.25 8.34666C13.3577 8.45249 13.3653 8.51065 13.253 8.62155C12.6824 9.18352 12.1238 9.75732 11.5542 10.32C11.4512 10.4214 11.4579 10.4779 11.5582 10.5712C11.7545 10.7545 11.9418 10.9475 12.1268 11.1426C12.1994 11.219 12.2455 11.2305 12.3275 11.1477C13.1708 10.2886 14.0163 9.43204 14.8641 8.57793C14.8899 8.54919 14.9256 8.52722 14.9307 8.47142L14.931 8.47176ZM4.78792 11.2163C4.81133 11.196 4.84176 11.1727 4.86852 11.1457C5.0585 10.9556 5.24079 10.7565 5.44013 10.5769C5.56756 10.462 5.54248 10.3944 5.43177 10.2858C4.87153 9.73771 4.32167 9.17879 3.7611 8.63136C3.64872 8.5218 3.634 8.46229 3.75541 8.34429C4.33705 7.77826 4.90666 7.19973 5.48562 6.63066C5.57559 6.54207 5.5786 6.49034 5.48562 6.40378C5.28494 6.21713 5.09094 6.02271 4.9023 5.82322C4.8237 5.74037 4.77788 5.75153 4.70162 5.82727C3.85274 6.6807 3.00164 7.53211 2.1483 8.38148C2.07572 8.45384 2.05699 8.49847 2.14094 8.58267C2.99094 9.43542 3.83825 10.2905 4.6829 11.148C4.71099 11.1747 4.73273 11.2109 4.78725 11.216L4.78792 11.2163Z" fill="#E7DBF1"/>
<path d="M6.97865 13.5092H6.5609C6.36859 13.5092 6.36992 13.5092 6.42377 13.3293C6.66905 12.511 6.91432 11.6928 7.1596 10.8745C7.85708 8.54367 8.555 6.21285 9.25337 3.88203C9.38281 3.45092 9.38716 3.45227 9.84137 3.45227H10.3929C10.604 3.45227 10.6066 3.45227 10.5481 3.64872C10.337 4.35372 10.1233 5.05803 9.91261 5.76337C9.29964 7.80881 8.68645 9.85414 8.07303 11.8994C7.92453 12.3947 7.768 12.8874 7.62451 13.3841C7.59408 13.4899 7.54257 13.5136 7.44691 13.5105C7.29038 13.5055 7.13452 13.5092 6.97865 13.5092Z" fill="#9D30FD"/>
<path d="M14.9306 8.47143C14.9259 8.52722 14.8901 8.5492 14.8637 8.57625C14.018 9.43284 13.1724 10.2894 12.3271 11.146C12.2458 11.2289 12.1997 11.2174 12.1264 11.1409C11.9415 10.9458 11.7542 10.7528 11.5578 10.5695C11.4575 10.4762 11.4508 10.4201 11.5538 10.3183C12.1224 9.75564 12.682 9.18183 13.2526 8.61987C13.365 8.50896 13.3573 8.4508 13.2496 8.34497C12.6696 7.77726 12.0994 7.19906 11.5201 6.63067C11.4197 6.52923 11.4197 6.47175 11.5227 6.37842C11.7234 6.19888 11.9137 6.00987 12.1017 5.81815C12.1756 5.74275 12.2244 5.73125 12.3047 5.81274C13.1549 6.67316 14.0069 7.53178 14.8607 8.38859C14.8878 8.41733 14.9109 8.44844 14.9306 8.47143Z" fill="#9D30FD"/>
<path d="M4.78725 11.216C4.73273 11.2109 4.71099 11.1748 4.68423 11.1484C3.83691 10.2929 2.98959 9.4378 2.14227 8.58302C2.05832 8.49883 2.07706 8.45419 2.14964 8.38183C3.00276 7.53246 3.85386 6.68106 4.70296 5.82762C4.77822 5.75188 4.82404 5.74073 4.90364 5.82357C5.09228 6.02306 5.28627 6.21748 5.48695 6.40413C5.57994 6.49069 5.57693 6.54242 5.48695 6.63101C4.90799 7.20008 4.33839 7.77862 3.75675 8.34464C3.63534 8.46265 3.65006 8.52216 3.76244 8.63171C4.32301 9.17914 4.87287 9.73806 5.43311 10.2862C5.54382 10.3947 5.5689 10.4623 5.44147 10.5773C5.24079 10.7568 5.05984 10.956 4.86986 11.146C4.8411 11.1724 4.81066 11.1957 4.78725 11.216Z" fill="#9D30FD"/>
</g>
<defs>
<clipPath id="clip0_3458_459">
<rect width="17" height="17" fill="white"/>
</clipPath>
</defs>
</svg>
