<svg width="24" height="19" viewBox="0 0 24 19" fill="none" xmlns="http://www.w3.org/2000/svg">
<path d="M-3.32668e-05 18.3423V13.2968C-3.32668e-05 11.8077 0.28027 10.2398 0.840876 8.59299C1.40148 6.94621 2.18107 5.36951 3.17965 3.86288C4.17823 2.35625 5.352 1.06861 6.70096 -4.39882e-05L10.5902 2.78546C9.52151 4.34465 8.61053 5.97391 7.85721 7.67325C7.1039 9.37259 6.72724 11.2208 6.72724 13.218V18.3423H-3.32668e-05ZM13.402 18.3423V13.2968C13.402 11.8077 13.6823 10.2398 14.2429 8.59299C14.8035 6.94621 15.5831 5.36951 16.5816 3.86288C17.5802 2.35625 18.754 1.06861 20.103 -4.39882e-05L23.9922 2.78546C22.9235 4.34465 22.0125 5.97391 21.2592 7.67325C20.5059 9.37259 20.1292 11.2208 20.1292 13.218V18.3423H13.402Z" fill="#9D30FD"/>
</svg>
